<svg width="128" height="48" viewBox="0 0 128 48" fill="none" xmlns="http://www.w3.org/2000/svg">
<path fill-rule="evenodd" clip-rule="evenodd" d="M75.6604 28.1894C74.7287 29.1889 73.5321 29.6966 72.1046 29.6966C70.6765 29.6966 69.4799 29.1889 68.5487 28.1894C67.6593 27.2374 67.1483 25.715 67.1483 24.0141C67.1483 22.3539 67.665 20.8524 68.564 19.8936C69.5047 18.8941 70.6957 18.3842 72.1034 18.3802C73.5135 18.3842 74.7044 18.8941 75.6446 19.8936C76.5447 20.8524 77.0603 22.3539 77.0603 24.0141C77.0603 25.715 76.5498 27.2374 75.6604 28.1894ZM63.1582 24.0141C63.1582 24.0909 63.1616 24.1666 63.1639 24.2423C61.7352 22.9418 59.6696 22.4578 58.4075 22.2054C56.0725 21.713 54.2887 21.2624 54.2887 19.6C54.2887 18.4271 55.339 17.5738 57.3566 17.7201C59.2003 17.8539 59.9768 18.9811 60.1896 20.0686C60.2201 20.2471 60.3026 20.377 60.5059 20.3787L63.8217 20.4069C63.8375 20.4069 63.8511 20.4052 63.8652 20.4041C63.3976 21.4945 63.1582 22.7086 63.1582 24.0141ZM57.5187 30.1139C55.915 30.1139 54.148 29.5441 53.7409 27.3396C53.7065 27.1289 53.6071 27.042 53.4456 27.0375L50.2398 26.9945V21.3279C50.6611 22.9886 52.0564 24.1383 55.0741 24.8177C57.094 25.301 60.5979 25.6082 60.5979 27.6818C60.5979 29.1274 59.5335 30.1478 57.5187 30.1139ZM41.5515 29.6988C38.9653 29.6988 36.5958 27.6631 36.5958 24.0164C36.5958 21.1551 38.3723 18.3825 41.5685 18.3825C42.9531 18.3825 46.4638 18.8568 46.4638 24.0164C46.4638 29.1895 42.7984 29.6988 41.551 29.6988H41.5515ZM80.9549 22.6244C81.6907 23.6058 83.0189 24.3326 85.1765 24.8182C87.1959 25.3016 90.7003 25.6088 90.7003 27.6823C90.7003 29.1279 89.6353 30.1483 87.6211 30.1144C86.0179 30.1144 84.2499 29.5447 83.8433 27.3401C83.8094 27.1295 83.71 27.0425 83.548 27.038L80.5777 26.9985C80.8911 26.0741 81.0509 25.0729 81.0509 24.0147C81.0508 23.5496 81.0187 23.0851 80.9549 22.6244ZM87.402 33C90.9589 33 95.1512 31.6758 94.8231 27.3808C94.4606 23.568 90.4931 22.6024 88.5099 22.206C86.1743 21.7136 84.3905 21.263 84.3905 19.6005C84.3905 18.4277 85.4408 17.5744 87.459 17.7207C89.3027 17.8545 90.0792 18.9816 90.292 20.0692C90.3225 20.2476 90.4055 20.3775 90.6083 20.3792L93.9241 20.4075C94.1765 20.4091 94.255 20.2781 94.2234 20.0986C93.574 16.1243 90.2536 15 87.1981 15C84.1471 15 80.471 15.8572 80.2101 19.6525C80.2011 19.7993 80.1977 19.9438 80.1977 20.0856C79.712 19.0759 79.0118 18.1487 78.1095 17.3276C76.4436 15.8256 74.3667 15.0209 72.1017 15.0011H72.0266C70.9447 15.0011 69.8859 15.2005 68.8791 15.5957C67.8557 16.0005 66.914 16.5873 66.0997 17.3276C65.2453 18.1047 64.5705 18.9765 64.0883 19.9235C63.37 16.0932 60.1049 15 57.0951 15C54.2943 15 50.966 15.7245 50.2398 18.7834V15.7471C50.2397 15.6693 50.2087 15.5948 50.1536 15.5398C50.0986 15.4849 50.024 15.454 49.9462 15.454H46.8235C46.7457 15.4542 46.6711 15.4852 46.6162 15.5402C46.5613 15.5953 46.5304 15.6699 46.5304 15.7476V16.5664C46.5304 16.7042 46.4384 16.7522 46.326 16.672C45.2152 15.8662 43.572 15.0017 41.5945 15.0017C40.4832 15.0017 39.4221 15.1971 38.4401 15.5822C37.4576 15.9684 36.5236 16.5563 35.6664 17.3299C34.6906 18.2176 33.9474 19.2295 33.4601 20.3374C32.9728 21.4454 32.7255 22.6831 32.7255 24.0158C32.7255 25.2598 32.9446 26.4265 33.376 27.4807C33.8074 28.535 34.4641 29.5102 35.3287 30.3798C36.1926 31.2495 37.1594 31.9102 38.2001 32.345C39.2408 32.7781 40.3877 32.9977 41.6108 32.9977C43.7126 32.9977 45.2898 32.1027 46.3232 31.289C46.4372 31.202 46.5304 31.2489 46.5304 31.3912V32.2512C46.5304 32.4127 46.6625 32.5449 46.824 32.5449H49.9468C50.0245 32.5446 50.099 32.5135 50.1539 32.4585C50.2088 32.4035 50.2397 32.329 50.2398 32.2512V29.3544C51.712 32.8159 55.4632 32.9994 57.2996 32.9994C60.3692 32.9994 63.9092 32.0112 64.6117 28.98C64.9494 29.4817 65.3346 29.9497 65.762 30.3776C67.4357 32.0621 69.629 32.9678 72.1074 32.9949H72.209C73.3858 32.9949 74.5214 32.769 75.5842 32.3224C76.6571 31.8687 77.63 31.2078 78.4471 30.3776C79.0584 29.7682 79.5805 29.0754 79.9978 28.3199C81.1108 32.7826 85.3979 33 87.402 33Z" fill="#1C1C1E"/>
</svg>
