<svg width="128" height="48" viewBox="0 0 128 48" fill="none" xmlns="http://www.w3.org/2000/svg">
<path d="M105.064 25.0027C105.276 26.9549 106.613 27.4801 108.162 27.4801C109.18 27.4801 110.05 27.5968 110.788 26.5464C111.01 26.2281 111.743 25.8462 112.347 26.2228C113.026 26.6472 112.973 27.4271 112.56 27.9947C111.557 29.3687 110.003 29.7188 108.162 29.7188C105.297 29.7188 102.666 27.7347 102.666 24.3979C102.666 21.0398 104.533 18.4032 108.247 18.4032C111.647 18.4032 113.467 20.679 113.467 24.1008V24.2281C113.467 24.5782 113.228 25.0027 112.883 25.0027H105.064ZM111.244 23.0027C110.904 21.2785 109.843 20.6419 108.247 20.6419C106.613 20.6419 105.403 21.2997 105.064 23.0027H111.244ZM98.6657 26.3979C98.6657 27.1247 99.1856 27.4589 99.9919 27.4589C100.114 27.4589 100.247 27.4854 100.39 27.4589C100.899 27.3687 101.392 27.7984 101.504 28.3077C101.626 28.8223 101.323 29.321 100.82 29.4748C100.475 29.5809 100.071 29.7241 99.5569 29.7188C97.8222 29.7029 96.2678 28.4509 96.2678 26.7162V15.2042C96.2841 14.892 96.4148 14.5966 96.635 14.3745C96.8551 14.1524 97.1493 14.0191 97.4614 14C97.7736 14.0177 98.0684 14.1497 98.2895 14.3709C98.5106 14.592 98.6426 14.8867 98.6604 15.1989V26.3979H98.6657ZM89.0954 29.7188C88.4073 29.7464 87.7222 29.6153 87.093 29.3356C86.4638 29.056 85.9073 28.6353 85.4667 28.1061V28.2971C85.4667 28.9072 84.8726 29.4005 84.2625 29.4005C83.6577 29.4005 83.0635 28.9072 83.0635 28.2971V15.2042C83.08 14.8911 83.2115 14.5951 83.4327 14.3728C83.6539 14.1506 83.9494 14.0179 84.2625 14C84.5765 14.0166 84.8732 14.1488 85.0956 14.3711C85.3179 14.5935 85.4501 14.8902 85.4667 15.2042V20.1538C85.912 19.6316 86.4698 19.2171 87.0983 18.9415C87.7268 18.6658 88.4096 18.5362 89.0954 18.5623C91.854 18.5623 94.2625 20.817 94.2625 24.1326C94.2625 27.4642 91.8593 29.7188 89.0954 29.7188ZM88.8726 21.0027C87.2598 21.0027 85.4667 21.8196 85.4667 24.2016C85.4667 26.5836 87.2598 27.4005 88.8726 27.4005C90.6657 27.4005 92.0662 26.1804 92.0662 24.2016C92.0858 23.7768 92.0166 23.3525 91.8631 22.9559C91.7096 22.5592 91.4752 22.199 91.1747 21.898C90.8742 21.597 90.5143 21.3619 90.1179 21.2078C89.7216 21.0536 89.2974 20.9838 88.8726 21.0027ZM80.2625 28.3979C80.2437 28.7102 80.1115 29.005 79.8908 29.2268C79.67 29.4485 79.3758 29.582 79.0635 29.6021C78.7513 29.582 78.4571 29.4485 78.2363 29.2268C78.0155 29.005 77.8833 28.7102 77.8646 28.3979V23.3369C77.8646 21.7825 76.8248 20.9178 75.4667 20.9178C73.7426 20.9178 73.0635 22.0159 73.0635 24.3767V28.3979C73.0448 28.7102 72.9126 29.005 72.6918 29.2268C72.471 29.4485 72.1769 29.582 71.8646 29.6021C71.5523 29.582 71.2581 29.4485 71.0374 29.2268C70.8166 29.005 70.6844 28.7102 70.6657 28.3979V23.3369C70.6657 21.7825 69.8275 20.8064 68.4694 20.8064C66.7718 20.8064 65.8646 22.0159 65.8646 24.3767V28.3979C65.8458 28.7102 65.7137 29.005 65.4929 29.2268C65.2721 29.4485 64.9779 29.582 64.6657 29.6021C64.3534 29.582 64.0592 29.4485 63.8384 29.2268C63.6176 29.005 63.4855 28.7102 63.4667 28.3979V20C63.4867 19.6886 63.6194 19.3951 63.8401 19.1744C64.0608 18.9538 64.3542 18.8211 64.6657 18.8011C64.9771 18.8211 65.2705 18.9538 65.4912 19.1744C65.7119 19.3951 65.8446 19.6886 65.8646 20C66.6285 19.0663 67.5357 18.5836 69.0476 18.5836C70.5489 18.5836 71.5781 19.2149 72.2572 20.4403C73.106 19.2573 74.3367 18.6154 76.0768 18.6154C78.2625 18.6154 80.2678 20.4032 80.2678 22.8859V28.4032L80.2625 28.3979ZM58.2625 28.504C57.3765 29.4271 56.8089 29.7241 54.8885 29.7241C52.342 29.7241 50.6657 28.0743 50.6657 25.4164V20C50.6834 19.6878 50.8154 19.393 51.0365 19.1719C51.2576 18.9508 51.5524 18.8188 51.8646 18.8011C52.1768 18.8188 52.4715 18.9508 52.6927 19.1719C52.9138 19.393 53.0458 19.6878 53.0635 20V24.9708C53.0635 26.695 53.8699 27.6021 55.3977 27.6021C56.671 27.6021 57.7107 27.3899 58.2625 25.8408C58.2519 25.8408 58.2625 24.8064 58.2625 23.931V19.9947C58.2803 19.6816 58.4131 19.3862 58.6353 19.1649C58.8575 18.9437 59.1536 18.8122 59.4667 18.7958C59.7789 18.8135 60.0737 18.9455 60.2948 19.1666C60.5159 19.3877 60.6479 19.6825 60.6657 19.9947V28.4934C60.6657 29.1034 60.0768 29.5968 59.4667 29.5968C58.8566 29.5968 58.2625 29.1034 58.2625 28.4934V28.504ZM43.4985 29.7241C42.8092 29.7519 42.1228 29.6203 41.4925 29.3397C40.8623 29.0591 40.3052 28.637 39.8646 28.1061V28.2971C39.8646 28.9072 39.2757 29.4005 38.6656 29.4005C38.0556 29.4005 37.4667 28.9072 37.4667 28.2971V15.2042C37.4832 14.8911 37.6146 14.5951 37.8359 14.3728C38.0571 14.1506 38.3526 14.0179 38.6656 14C38.9787 14.0179 39.2742 14.1506 39.4954 14.3728C39.7167 14.5951 39.8481 14.8911 39.8646 15.2042V20.1538C40.3104 19.6309 40.8691 19.216 41.4986 18.9403C42.1281 18.6646 42.8119 18.5354 43.4985 18.5623C46.2572 18.5623 48.6657 20.817 48.6657 24.1326C48.6657 27.4642 46.2572 29.7188 43.4985 29.7188V29.7241ZM43.2757 21.0027C41.6577 21.0027 39.8646 21.8196 39.8646 24.2016C39.8646 26.5836 41.6577 27.4005 43.2757 27.4005C45.0688 27.4005 46.4641 26.1804 46.4641 24.2016C46.4836 23.7772 46.4146 23.3534 46.2614 22.9572C46.1082 22.5609 45.8742 22.2009 45.5743 21.9C45.2744 21.5991 44.9152 21.3639 44.5195 21.2095C44.1237 21.055 43.7002 20.9845 43.2757 21.0027ZM31.976 21.4164C32.1829 21.7772 32.1829 22.2228 31.976 22.5836L28.0237 29.4164C27.9215 29.5935 27.7746 29.7405 27.5978 29.8429C27.4209 29.9454 27.2202 29.9995 27.0158 30H19.1113C18.9069 29.9995 18.7062 29.9454 18.5293 29.8429C18.3524 29.7405 18.2055 29.5935 18.1033 29.4164L14.1564 22.5836C14.0539 22.4061 14 22.2049 14 22C14 21.7951 14.0539 21.5939 14.1564 21.4164L18.1033 14.5836C18.2055 14.4065 18.3524 14.2595 18.5293 14.1571C18.7062 14.0546 18.9069 14.0005 19.1113 14H27.0158C27.4296 14 27.8115 14.2228 28.0237 14.5836L31.976 21.4164ZM27.0529 23.0027C27.5993 23.0027 28.045 22.5517 28.045 22C28.045 21.4483 27.5993 21.0027 27.0529 21.0027H19.0794C18.8142 21.0027 18.5599 21.108 18.3723 21.2955C18.1848 21.4831 18.0794 21.7374 18.0794 22.0027C18.0794 22.2679 18.1848 22.5222 18.3723 22.7098C18.5599 22.8973 18.8142 23.0027 19.0794 23.0027H27.0476H27.0529ZM24.2731 26.3979C24.8142 26.3979 25.2545 25.9523 25.2545 25.4005C25.2545 24.8488 24.8142 24.3979 24.2731 24.3979H21.8487C21.3076 24.3979 20.8672 24.8488 20.8672 25.4005C20.8672 25.9523 21.3076 26.3979 21.8487 26.3979H24.2678H24.2731ZM20.8672 17.6074C20.3208 17.6074 19.8752 18.0531 19.8752 18.6048C19.8752 19.1565 20.3208 19.6074 20.8672 19.6074H25.2598C25.8062 19.6074 26.2519 19.1565 26.2519 18.6048C26.2519 18.0531 25.8062 17.6074 25.2598 17.6074H20.8672Z" fill="#1C1C1E"/>
</svg>
