<svg width="128" height="48" viewBox="0 0 128 48" fill="none" xmlns="http://www.w3.org/2000/svg">
<path fill-rule="evenodd" clip-rule="evenodd" d="M12.2321 20.9288C12.5672 20.9288 12.8891 20.8723 13.1888 20.7684C12.4876 21.7907 12.0806 23.0301 12.0806 24.398C12.0806 25.7746 12.5036 27.021 13.2429 28.047C12.928 27.9307 12.5875 27.8673 12.2321 27.8673C10.6197 27.8673 9.31266 29.1743 9.31266 30.7867C9.31266 31.0086 9.33742 31.2247 9.38431 31.4324C7.89062 29.4787 7 27.0416 7 24.398C7 21.7164 7.91639 19.2473 9.40456 17.2797C9.34457 17.5129 9.31266 17.7574 9.31266 18.0093C9.31266 19.6217 10.6197 20.9288 12.2321 20.9288ZM15.1516 30.7867C15.1516 30.4416 15.0917 30.1104 14.9817 29.803C16.0107 30.5093 17.2617 30.9194 18.6206 30.9194C20.4215 30.9194 22.0329 30.199 23.1893 28.9668C24.213 28.0379 25.8055 28.0379 26.8292 28.9478C27.8529 29.9715 27.8529 31.564 26.8292 32.5877C24.7249 34.692 21.8244 36 18.6206 36C15.9559 36 13.501 35.0951 11.5396 33.6235C11.7616 33.6775 11.9935 33.7062 12.2321 33.7062C13.8445 33.7062 15.1516 32.3991 15.1516 30.7867ZM18.6206 12.796C15.9925 12.796 13.5685 13.6762 11.6207 15.154C11.8179 15.112 12.0224 15.0899 12.2321 15.0899C13.8445 15.0899 15.1516 16.3969 15.1516 18.0093C15.1516 18.3669 15.0873 18.7094 14.9697 19.026C16.001 18.2899 17.2564 17.8766 18.6206 17.8766C20.4215 17.8766 22.0329 18.597 23.1893 19.7724C24.213 20.7961 25.8055 20.7961 26.8292 19.7724C27.8529 18.7487 27.8529 17.1562 26.8292 16.1325C24.7249 14.1041 21.8244 12.796 18.6206 12.796ZM12.2321 20.5496C13.6351 20.5496 14.7724 19.4123 14.7724 18.0093C14.7724 16.6063 13.6351 15.469 12.2321 15.469C10.8291 15.469 9.69181 16.6063 9.69181 18.0093C9.69181 19.4123 10.8291 20.5496 12.2321 20.5496ZM12.2321 33.327C13.6351 33.327 14.7724 32.1897 14.7724 30.7867C14.7724 29.3837 13.6351 28.2464 12.2321 28.2464C10.8291 28.2464 9.69181 29.3837 9.69181 30.7867C9.69181 32.1897 10.8291 33.327 12.2321 33.327ZM39.4727 26.9161C39.0587 26.4893 38.8589 26.2832 38.2419 26.7866C37.8058 27.1658 37.1423 27.3743 36.5736 27.2606C33.0096 27.2606 32.8769 22.1041 35.7774 21.3838C36.6494 21.1752 37.6731 21.4596 38.3935 21.9714C38.7537 22.2748 38.9812 22.0473 39.2656 21.7629C39.3626 21.7144 39.4208 21.6426 39.4898 21.5575C39.5287 21.5096 39.5711 21.4574 39.6258 21.4027C39.6667 21.3557 39.7067 21.3106 39.7452 21.2672C40.1883 20.7676 40.4402 20.4836 39.7774 19.943C39.4172 19.6586 38.9812 19.4501 38.5452 19.2984C37.9006 19.0899 37.3129 18.9382 36.5925 18.9382C35.2087 18.8624 33.9006 19.2984 32.82 20.1705C31.6446 21.1184 31.0759 22.5022 31.0001 24.0188C30.8484 27.2985 33.256 29.8388 36.5925 29.8388C38.1091 29.8388 39.1329 29.4028 40.2893 28.4549C40.7666 28.0889 40.229 27.6161 39.8757 27.3055C39.8081 27.246 39.7473 27.1925 39.7016 27.1468C39.6173 27.0653 39.542 26.9876 39.4727 26.9161ZM118.053 28.7582C118.053 29.2701 118.413 29.6303 118.925 29.6303H119.873C120.385 29.6303 120.745 29.2701 120.745 28.7582V17.3458C120.745 16.8339 120.385 16.4738 119.873 16.4738H118.925C118.413 16.4738 118.053 16.8339 118.053 17.3458V28.7582ZM110.432 29.7819C111.892 29.7819 112.897 29.2701 113.92 28.3222L113.996 28.7582C114.072 29.1943 114.356 29.6303 114.868 29.6303H115.664C116.176 29.6303 116.536 29.2701 116.536 28.7582V19.9809C116.536 19.469 116.176 19.1089 115.664 19.1089H114.716C114.205 19.1089 113.844 19.469 113.844 19.9809V24.4928C113.844 25.9336 112.821 27.3175 111.228 27.3175C109.56 27.3175 108.764 26.1421 108.764 24.6255V19.9809C108.764 19.469 108.404 19.1089 107.892 19.1089H106.944C106.432 19.1089 106.072 19.469 106.072 19.9809V24.6255C106.072 27.3175 107.456 29.7819 110.432 29.7819ZM104.404 19.1657H102.584V19.1847H102.527V18.8245C102.527 17.8008 102.963 17.0046 104.043 17.0046H104.764C105.276 17.0046 105.636 16.6444 105.636 16.1325V15.5448C105.636 15.1088 105.276 14.6728 104.764 14.6728H103.38C101.124 14.8813 99.8917 16.6254 99.8917 18.8055V28.7582C99.8917 29.2701 100.252 29.6303 100.764 29.6303H101.712C102.223 29.6303 102.584 29.2701 102.584 28.7582V21.4975H104.404C104.915 21.4975 105.276 21.1373 105.276 20.6255V20.0378C105.276 19.6017 104.915 19.1657 104.404 19.1657ZM97.9959 19.1657H96.0433V17.3458C96.0433 16.8339 95.6831 16.4738 95.1713 16.4738H94.2234C93.7116 16.4738 93.3514 16.8339 93.3514 17.3458V25.9146C93.3514 28.0947 94.2992 29.4597 96.4793 29.6113H97.7116C98.2234 29.6113 98.5836 29.2511 98.5836 28.7393V28.0947C98.5836 27.5829 98.2234 27.2227 97.7116 27.2227H97.2756C96.4035 27.2227 95.9675 26.7866 95.9675 25.9146V21.4975H97.9959C98.5078 21.4975 98.868 21.1373 98.868 20.6255V20.0378C98.868 19.5259 98.5078 19.1657 97.9959 19.1657ZM66.9246 19.1657H68.8772C69.3891 19.1657 69.7492 19.5259 69.7492 20.0378V20.6255C69.7492 21.1373 69.3891 21.4975 68.8772 21.4975H66.8487V25.9146C66.8487 26.7866 67.2848 27.2985 68.1568 27.2985H68.5928C69.1047 27.2985 69.4649 27.6587 69.4649 28.1705V28.7582C69.4649 29.2701 69.1047 29.6303 68.5928 29.6303H68.0052C65.6165 29.6303 64.2326 28.6066 64.2326 25.9336V17.3648C64.2326 16.8529 64.5928 16.4927 65.1047 16.4927H66.0525C66.5644 16.4927 66.9246 16.8529 66.9246 17.3648V19.1657ZM58.3558 18.9382C57.0477 18.9382 55.9671 19.4501 55.0193 20.398L54.9434 19.9619C54.8676 19.5259 54.5832 19.0899 54.0714 19.0899H53.2752C52.7633 19.0899 52.4031 19.4501 52.4031 19.9619V28.7582C52.4031 29.2701 52.7633 29.6303 53.2752 29.6303H54.223C54.7349 29.6303 55.0951 29.2701 55.0951 28.7582V24.2463C55.0951 22.7297 56.1188 21.4217 57.7112 21.4217C59.3795 21.4217 60.1757 22.597 60.1757 24.1136V28.7582C60.1757 29.2701 60.5359 29.6303 61.0477 29.6303H61.9956C62.5075 29.6303 62.8677 29.2701 62.8677 28.7582V24.0947C62.8677 21.3269 61.3321 18.9382 58.3558 18.9382ZM87.5504 18.9382C86.2423 18.9382 85.1617 19.4501 84.2138 20.398L84.138 19.9619C84.0622 19.5259 83.7778 19.0899 83.266 19.0899H82.4697C81.9579 19.0899 81.5977 19.4501 81.5977 19.9619V28.7582C81.5977 29.2701 81.9579 29.6303 82.4697 29.6303H83.4176C83.9295 29.6303 84.2897 29.2701 84.2897 28.7582V24.2463C84.2897 22.7297 85.3134 21.4217 86.9058 21.4217C88.5741 21.4217 89.3703 22.597 89.3703 24.1136V28.7582C89.3703 29.2701 89.7305 29.6303 90.2423 29.6303H91.1902C91.7021 29.6303 92.0622 29.2701 92.0622 28.7582V24.0947C92.0622 21.3269 90.5267 18.9382 87.5504 18.9382ZM40.6305 24.398C40.6305 21.2131 42.8675 18.8814 46.0713 18.8814C49.2751 18.8814 51.5879 21.1942 51.5879 24.398C51.5879 27.6587 49.332 29.9146 46.0713 29.9146C42.8864 29.9146 40.6305 27.5829 40.6305 24.398ZM72.6808 25.4217C72.9283 26.8279 74.3612 27.4502 75.7209 27.4502C76.3654 27.4502 77.1048 27.2985 77.6735 27.0141C77.7114 26.9762 77.7635 26.9573 77.8157 26.9383C77.8678 26.9193 77.9199 26.9004 77.9579 26.8625C78.318 26.6539 78.6024 26.5781 78.9057 26.8625L79.4176 27.3743L79.8536 27.8104C80.2723 28.3747 80.0268 28.5195 79.5534 28.7986C79.5338 28.8102 79.5138 28.822 79.4934 28.8341C78.4128 29.5544 77.0289 29.9146 75.7209 29.9146C72.2327 29.9146 69.9009 27.8104 69.9009 24.3222C69.9009 20.9856 72.2327 18.8055 75.4934 18.8055C78.9057 18.8055 80.8015 20.7582 80.8773 24.1895C80.8773 24.2582 80.8777 24.3234 80.8781 24.3853C80.8829 25.1771 80.8844 25.4217 80.0053 25.4217H72.6808ZM48.8391 24.398C48.8391 22.8056 47.7396 21.3458 46.0713 21.3458C44.403 21.3458 43.3035 22.7297 43.3035 24.398C43.3035 26.0663 44.3272 27.3743 46.0713 27.3743C47.8154 27.3743 48.8391 26.0663 48.8391 24.398ZM78.1664 23.0899H72.7256C73.1047 21.8577 74.1853 21.1942 75.5502 21.1942C76.8583 21.1942 77.9579 21.706 78.1664 23.0899Z" fill="#1C1C1E"/>
</svg>
