<svg width="128" height="48" viewBox="0 0 128 48" fill="none" xmlns="http://www.w3.org/2000/svg">
<path fill-rule="evenodd" clip-rule="evenodd" d="M24.6667 13.2837H18V29.1702H24.383C26.3688 29.1702 27.9291 28.6028 29.0638 27.6099C30.766 26.1915 31.617 23.922 31.617 21.3688C31.617 16.6879 28.922 13.2837 24.6667 13.2837ZM28.3546 21.4397C28.3546 24.5603 27.2199 26.4043 24.1702 26.4043V26.4752H21.1915V16.1206H24.2411C27.0071 16.1206 28.3546 18.3191 28.3546 21.4397ZM38.0709 17.4681C34.5248 17.4681 32.1135 20.0922 32.1135 23.4965C32.1135 26.8298 34.5248 29.5248 38.0709 29.5248C41.617 29.5248 44.0284 26.9007 44.0284 23.4965C44.0284 20.0922 41.617 17.4681 38.0709 17.4681ZM38 19.7376C39.844 19.7376 40.9078 21.2979 40.9078 23.4965C40.9078 25.695 39.9149 27.1844 38 27.1844C36.0851 27.1844 35.0922 25.766 35.0922 23.4965C35.0922 21.2269 36.156 19.7376 38 19.7376ZM50.2695 17.4681C46.7943 17.4681 44.5957 20.0922 44.5957 23.4965C44.5957 26.8298 46.8652 29.4539 50.4823 29.5248C53.5319 29.5248 55.3759 27.6099 55.5886 25.1986H52.6099C52.3972 26.4752 51.5461 27.1135 50.3404 27.1135C48.4964 27.1135 47.6454 25.6241 47.6454 23.4965C47.6454 21.2979 48.5674 19.8794 50.4113 19.8794C51.4752 19.8794 52.2553 20.6596 52.4681 21.6525H55.4468C55.0213 19.1702 53.2482 17.4681 50.2695 17.4681ZM63.5319 27.8227V29.0993H66.4397V17.7518H63.3901V24.3475C63.3901 25.8369 62.539 26.9007 61.1206 26.9007C59.773 26.9007 59.2057 26.1915 59.2057 24.844V17.7518H56.2269V25.3404C56.2269 27.8227 57.6454 29.4539 60.1986 29.4539C61.8298 29.4539 62.6808 28.8865 63.461 27.8227H63.5319ZM84.1702 13.3546H81.1206V16.1915H84.1702V13.3546ZM84.1702 17.7518H81.1206V29.0993H84.1702V17.7518ZM88.3546 29.4539H85.3759C85.7305 31.7234 87.6454 33 90.6241 33C92.3262 33 93.8156 32.6454 94.7376 31.7234C95.5886 30.9433 96.0851 29.8794 96.0851 28.2482V17.7518H93.1773V18.9574H93.1064C92.4681 18.0355 91.4042 17.4681 89.9858 17.4681C87.1489 17.4681 85.0922 19.5957 85.0922 23C85.0922 26.4752 87.5744 28.461 90.1276 28.461C91.5461 28.461 92.4681 27.8936 93.1064 27.1135H93.1773V28.3901C93.1773 29.8794 92.3262 30.7305 90.6241 30.7305C89.2766 30.7305 88.5674 30.1631 88.3546 29.4539ZM90.695 19.8794C92.4681 19.8794 93.3901 21.2979 93.3901 22.9291C93.3901 24.6312 92.6099 26.0496 90.695 26.0496C89.1347 26.0496 88.1418 24.9149 88.1418 23C88.1418 21.0851 89.1347 19.8794 90.695 19.8794ZM103.816 17.4681C102.326 17.4681 101.262 18.1064 100.411 19.3121V17.8936H97.4326V29.2411H100.34V22.7872C100.34 21.2269 101.333 20.1631 102.681 20.1631C103.957 20.1631 104.667 21.0142 104.667 22.2199V29.1702H107.716V21.7234C107.716 19.2411 106.156 17.4681 103.816 17.4681ZM70.8369 17.3972C70.8369 18.6738 71.9007 19.0993 74.2411 19.5957C77.5035 20.305 80.1986 21.0851 80.2695 24.4184C80.2695 27.6809 77.6454 29.4539 74.0993 29.4539C69.773 29.4539 67.3617 27.539 67.2198 24.2057H70.3404C70.5532 26.1206 71.617 26.9007 73.8865 26.9007C75.5177 26.9007 76.9362 26.3333 76.9362 24.844C76.9362 23.3462 75.5637 23.0248 73.3206 22.4995C73.2271 22.4776 73.132 22.4553 73.0354 22.4326C70.1986 21.7943 67.5745 21.0851 67.5745 17.7518C67.5745 14.6312 70.1276 13 73.6737 13C77.2198 13 79.4893 14.7021 79.844 17.7518H76.7234C76.4397 16.2624 75.234 15.5532 73.6737 15.5532C71.9716 15.5532 70.8369 16.2624 70.8369 17.3972ZM107.787 18.6738C107.787 19.3121 108.355 19.8794 108.993 19.8794C109.631 19.8794 110.199 19.3121 110.199 18.6738C110.199 18.0355 109.631 17.4681 108.993 17.4681C108.355 17.4681 107.787 18.0355 107.787 18.6738ZM108 18.6738C108 18.1064 108.426 17.6809 108.993 17.6809C109.56 17.6809 109.986 18.1064 109.986 18.6738C109.986 19.2411 109.56 19.6667 108.993 19.6667C108.426 19.6667 108 19.2411 108 18.6738ZM108.993 18.0354H108.567V19.2411H108.78V18.8156H109.064L109.276 19.2411H109.56L109.276 18.7447C109.29 18.7315 109.305 18.7183 109.322 18.7041C109.395 18.6424 109.489 18.5632 109.489 18.3901C109.489 18.2482 109.418 18.1773 109.347 18.1064C109.276 18.0354 109.135 18.0354 108.993 18.0354ZM108.78 18.6028V18.2482H109.135C109.205 18.2482 109.205 18.3901 109.205 18.3901C109.205 18.6028 109.064 18.6028 108.993 18.6028H108.78Z" fill="#1C1C1E"/>
</svg>
