<svg width="128" height="48" viewBox="0 0 128 48" fill="none" xmlns="http://www.w3.org/2000/svg">
<path fill-rule="evenodd" clip-rule="evenodd" d="M90.7174 31.8963C90.6955 31.791 90.6519 31.6914 90.5894 31.6038C90.5894 31.6038 87.9441 27.8026 86.8964 24.8591C85.8527 21.9262 85.382 19.0304 85.4338 16.491C85.4846 13.9517 85.0144 11.055 83.9707 8.12273C82.923 5.17978 80.2777 1.37854 80.2777 1.37854C80.0152 1.00028 79.4774 0.886689 79.0842 1.12374C79.0842 1.12374 73.6555 4.40352 69.7314 5.80101C65.8216 7.1923 62.0184 7.98603 58.7336 8.20053C55.4487 8.41418 51.6455 9.20848 47.7349 10.6C43.8111 11.9967 38.3829 15.2765 38.3829 15.2765C38.2901 15.331 38.2096 15.4042 38.1466 15.4915C38.0836 15.5788 38.0395 15.6783 38.0171 15.7836C37.9946 15.8888 37.9943 15.9976 38.0162 16.103C38.0381 16.2084 38.0817 16.3081 38.1442 16.3958C38.1442 16.3958 40.7895 20.197 41.8366 23.1402C42.8806 26.0722 43.3513 28.9684 43.2998 31.508C43.249 34.0473 43.7206 36.9437 44.7638 39.8774C45.812 42.8195 48.4556 46.6224 48.4556 46.6224C48.7189 46.9984 49.2561 47.114 49.6491 46.8761C49.6491 46.8761 55.0781 43.596 59.0019 42.1977C62.9125 40.8064 66.716 40.0133 70.0009 39.7985C73.2849 39.5848 77.0878 38.7919 80.9987 37.3987C84.9222 36.002 90.3515 32.7225 90.3515 32.7225C90.4442 32.668 90.5246 32.5947 90.5875 32.5074C90.6503 32.4202 90.6943 32.3207 90.7167 32.2155C90.7391 32.1103 90.7393 32.0016 90.7174 31.8963ZM53.2289 22.6656L48.6244 22.6735L48.6297 26.0142C48.6306 26.5531 48.7033 26.9065 48.8476 27.0768C48.9911 27.2465 49.2913 27.3305 49.7482 27.3285H49.8462L49.8471 27.7332L46.1017 27.7403L46.1008 27.3355H46.206C46.662 27.3355 46.9611 27.2501 47.102 27.0833C47.2438 26.9153 47.3137 26.5587 47.3128 26.0158L47.3016 19.3362C47.3007 18.7973 47.2288 18.4435 47.0871 18.2764C46.9453 18.1092 46.6462 18.0261 46.189 18.0272H46.085L46.0842 17.6168L49.8282 17.6095L49.8291 18.0207H49.731C49.2743 18.0216 48.9739 18.1056 48.8315 18.2736C48.6881 18.4407 48.6173 18.7945 48.6179 19.3342L48.6232 22.1712L53.2278 22.1633L53.2233 19.3255C53.2216 18.7863 53.1497 18.4337 53.0054 18.266C52.8628 18.0985 52.5626 18.0154 52.1051 18.0165L52.0079 18.0173L52.007 17.6061L55.7513 17.5991L55.7522 18.0103H55.647C55.191 18.0103 54.8916 18.0954 54.751 18.2626C54.6092 18.4314 54.5393 18.784 54.5399 19.3241L54.5523 26.004C54.5531 26.5469 54.6247 26.9034 54.7665 27.0697C54.9074 27.2377 55.2068 27.3203 55.6634 27.3203L55.7674 27.3181L55.7682 27.7242L52.0239 27.7299L52.0231 27.3251H52.122C52.5781 27.3251 52.8783 27.2391 53.0217 27.0697C53.1652 26.9003 53.2362 26.5446 53.2343 26.0057L53.2289 22.6656ZM59.8268 26.4758C59.4147 26.9344 58.9649 27.1639 58.4784 27.1639C58.1869 27.1639 57.9332 27.05 57.7179 26.8192C57.5068 26.601 57.3902 26.3084 57.3932 26.0048C57.3923 25.5254 57.5491 25.1598 57.8639 24.9044C58.179 24.6485 58.8406 24.3616 59.8496 24.0425L60.2206 23.9244L60.2231 25.2297C60.224 25.7602 60.0918 26.1754 59.8268 26.4758ZM60.7589 27.5455C60.9785 27.7922 61.2717 27.9165 61.6375 27.9145C61.9795 27.9145 62.3233 27.8348 62.6693 27.6766V27.7104L66.3166 27.7048L66.3155 27.3006H66.2307C65.765 27.3006 65.4601 27.218 65.3135 27.05C65.1678 26.8837 65.0939 26.5288 65.0934 25.9843L65.0863 22.1363C65.5035 21.8307 65.9032 21.6024 66.2854 21.4522C66.667 21.3017 67.0332 21.2261 67.3804 21.2253C67.8587 21.2244 68.2035 21.3662 68.4154 21.6531C68.6274 21.9401 68.7331 22.4049 68.7348 23.0489L68.7393 25.9772C68.741 26.5162 68.6705 26.8716 68.5296 27.0413C68.3886 27.2112 68.089 27.2966 67.6332 27.2966H67.5281L67.5292 27.7028L71.1692 27.6958L71.1687 27.2916H71.0768C70.6165 27.2916 70.3138 27.209 70.17 27.041C70.0266 26.8747 69.9538 26.5181 69.9521 25.9753L69.9476 23.0723C69.9459 21.9812 69.7467 21.2295 69.3504 20.8174C68.9622 20.4129 68.4735 20.2108 67.8816 20.2134C67.4731 20.2134 67.0348 20.3405 66.5686 20.5933C66.1002 20.8464 65.6069 21.2261 65.086 21.7309L65.0832 20.2249L62.6578 21.1351L62.6586 21.2332L63.0304 21.3958C63.4174 21.5604 63.6553 21.7273 63.7418 21.8972C63.8295 22.0661 63.8732 22.4503 63.874 23.0506L63.8802 25.9863C63.8811 26.5308 63.8109 26.8857 63.6694 27.0542C63.5417 27.2062 63.2876 27.2892 62.9085 27.3047L62.9082 27.1692C62.7652 27.1898 62.6211 27.201 62.4766 27.2028C62.0637 27.2045 61.788 27.0728 61.6482 26.8124C61.5081 26.5514 61.4382 26.028 61.4365 25.2407L61.4312 22.1486C61.4303 21.4705 61.2666 20.9798 60.9393 20.6759C60.6118 20.3757 60.0816 20.2269 59.3468 20.2277C58.4595 20.2294 57.719 20.4597 57.124 20.9163C56.5191 21.3879 56.2184 21.8834 56.2192 22.4057V22.6008L57.6209 22.1484V21.8228C57.6201 21.4789 57.7199 21.2224 57.9194 21.0528C58.119 20.8822 58.4192 20.7971 58.8191 20.7963C59.2059 20.7954 59.5323 20.8935 59.7983 21.0877C59.9725 21.2095 60.0861 21.358 60.138 21.5347C60.1915 21.7106 60.2186 22.0221 60.2186 22.4703L60.2214 23.494L59.3279 23.7567C58.1675 24.0893 57.3346 24.4459 56.8314 24.8275C56.3263 25.2091 56.0763 25.6725 56.0772 26.2154C56.078 26.707 56.2373 27.1148 56.5549 27.4387C56.8726 27.7623 57.2717 27.9215 57.7495 27.9215C58.2281 27.9211 58.6978 27.7918 59.1092 27.5472C59.5362 27.2989 59.9415 26.9257 60.3229 26.4307C60.3931 26.9257 60.5382 27.2966 60.7589 27.5455ZM73.1017 21.3608C73.4772 20.8586 73.9386 20.6066 74.4868 20.6057C74.9305 20.6049 75.2926 20.785 75.5762 21.1449C75.8609 21.5054 76.0018 21.9711 76.0024 22.5407C76.0035 22.9108 75.8747 23.1445 75.6165 23.2426C75.3578 23.3407 74.7408 23.3914 73.7669 23.3931L72.4171 23.3948C72.4974 22.5424 72.7263 21.8648 73.1017 21.3608ZM75.1827 27.0816C74.3915 27.0833 73.7277 26.798 73.1922 26.2278C72.6566 25.6576 72.3869 24.9501 72.3852 24.1062C72.3852 24.0496 72.3869 23.9472 72.3923 23.8001L77.3883 23.7905V23.5825C77.3861 22.5165 77.1346 21.687 76.6304 21.0919C76.1273 20.4969 75.4237 20.2001 74.5192 20.2021C73.5146 20.2029 72.6789 20.5705 72.012 21.3019C71.346 22.0334 71.0139 22.9523 71.0162 24.0566C71.0184 25.1745 71.3674 26.0934 72.0645 26.8144C72.7621 27.5357 73.6488 27.8939 74.7284 27.8922C75.623 27.8905 76.5472 27.6174 77.4985 27.0714L77.4974 26.4592C76.7104 26.8733 75.9398 27.0799 75.1827 27.0816ZM78.2387 27.397L78.0792 25.5573L78.6012 25.5556L78.6204 25.6872C78.8092 26.8823 79.4242 27.479 80.464 27.4776C80.9122 27.4759 81.2964 27.3355 81.6174 27.0559C81.9385 26.7741 82.0997 26.4361 82.0986 26.0457C82.098 25.8025 82.0143 25.5871 81.8491 25.4C81.6828 25.2182 81.2831 24.9558 80.6478 24.6127L80.0274 24.2753C78.8433 23.6293 78.2497 22.9083 78.2491 22.112C78.2474 21.5215 78.4645 21.0533 78.8994 20.7092C79.3332 20.3653 79.9223 20.1919 80.6661 20.1903C81.2964 20.1894 81.9884 20.3258 82.7409 20.5981L82.7438 22.1112L82.2217 22.112L82.202 21.9886C82.1702 21.7794 82.1293 21.601 82.0766 21.4505C82.0274 21.3048 81.9508 21.1699 81.8508 21.053C81.7527 20.9375 81.6157 20.8326 81.4362 20.7371C81.2583 20.6415 80.9942 20.5945 80.6478 20.5953C80.2817 20.5953 79.9829 20.7021 79.7503 20.913C79.5178 21.1238 79.4025 21.3952 79.4025 21.725C79.4031 22.2078 79.8639 22.7034 80.7817 23.2102L81.4678 23.5873C82.1389 23.9565 82.6017 24.2968 82.8596 24.6088C83.1122 24.9276 83.239 25.3123 83.239 25.7692C83.2407 26.4045 82.9873 26.9153 82.4799 27.3009C81.9712 27.6873 81.2992 27.8801 80.4646 27.8818C79.5852 27.8829 78.843 27.7223 78.2387 27.397Z" fill="#1C1C1E"/>
</svg>
