<svg width="128" height="48" viewBox="0 0 128 48" fill="none" xmlns="http://www.w3.org/2000/svg">
<path fill-rule="evenodd" clip-rule="evenodd" d="M50.0533 19.5849C49.9459 19.4432 49.6806 19.5599 49.6806 19.5599L45.4387 21.1326C45.1214 20.3492 44.7402 19.5933 44.299 18.8724L45.6726 15.1243C45.6726 15.1243 45.8443 14.7521 45.6849 14.6594C45.527 14.5657 45.269 14.8149 45.269 14.8149L42.7739 16.8613C41.801 15.8192 40.6588 14.9786 39.3466 14.3833C38.8505 14.1637 38.3393 13.9798 37.817 13.8331L37.0427 10.8677C37.0427 10.8677 36.976 10.5705 36.7769 10.5705C36.5783 10.5705 36.5243 10.8515 36.5243 10.8515L36.0281 13.4712C35.4709 13.3999 34.9097 13.3638 34.348 13.3633C32.4869 13.3633 30.8338 13.7164 29.3867 14.3657C28.7739 14.6401 28.1888 14.9726 27.6394 15.3587C27.5816 15.3994 27.5257 15.4422 27.4698 15.4851L27.4698 15.4851L27.4697 15.4851C27.438 15.5095 27.4062 15.5338 27.3741 15.5578C26.8592 14.2323 26.4541 13.1505 26.3781 12.8253C26.664 12.5659 27.2647 11.6204 27.4114 10.9824C27.6149 10.0899 27.5526 9.66769 27.3378 8.99242C27.2768 8.79868 27.1917 8.60984 27.112 8.43305C26.9885 8.15922 26.8781 7.91428 26.8906 7.72475C26.9063 7.49182 27.0303 7.32509 27.1353 7.21769C27.0784 6.89011 26.8651 6.7474 26.6115 6.71455C26.4644 6.69476 26.3377 6.71473 26.2121 6.73452L26.2121 6.73453C26.1384 6.74614 26.0651 6.75769 25.9883 6.76113C25.976 6.73846 25.9608 6.72214 25.9458 6.706C25.8972 6.65376 25.8503 6.60344 25.9103 6.34528C26.0066 5.92972 26.6716 5.69315 27.3487 5.45226L27.3488 5.45224C27.5058 5.39636 27.6635 5.34025 27.815 5.28162C28.8325 4.88685 29.4009 4.15372 29.4352 2.97726C29.4597 2.12153 28.9831 1.48843 28.3853 1.20302C28.2651 1.54826 27.7694 2.01266 27.4246 2.20195C27.0853 2.38928 26.6145 2.46088 26.2742 2.38144C26.3487 1.75226 26.0584 1.21626 25.5989 1C25.4518 1.26824 24.8991 1.638 24.0684 1.6125C23.7074 1.60099 23.4931 1.55735 23.2705 1.512C22.9809 1.45299 22.677 1.39108 22.0171 1.3933C20.3556 1.39624 18.9796 2.3986 18.8104 3.86978C18.7015 4.82555 19.0688 5.62734 19.3459 6.04271C19.1389 6.19816 18.6535 6.66551 18.5667 6.80576C18.4465 6.66551 18.117 6.47916 17.7197 6.73858C17.8056 6.94749 17.8217 7.20151 17.7541 7.44523C17.7376 7.50317 17.6899 7.61539 17.6261 7.76564C17.4248 8.23976 17.0627 9.09264 17.0101 9.81432C16.8925 11.4233 17.8217 12.5125 18.6015 12.8239C18.4293 13.0838 18.3935 13.3599 18.5152 13.5859C18.5951 13.7355 18.7564 13.8802 19.0865 13.8802C18.8962 14.0876 18.8241 14.401 18.9477 14.7099C19.0865 15.0556 19.4832 15.5583 19.8299 15.5583C19.8127 15.852 19.951 16.543 20.0207 16.8206C20.0082 16.8438 19.9957 16.8665 19.9834 16.8889L19.9834 16.8889C19.8763 17.0835 19.7798 17.2587 19.7961 17.6307C19.8132 18.0632 20.0903 18.4124 20.4355 18.4815C20.4569 18.5327 20.4769 18.5852 20.4968 18.6371C20.5577 18.7966 20.6171 18.952 20.7077 19.0563C20.732 19.0841 20.7557 19.1131 20.7803 19.1431C20.8782 19.2627 20.9889 19.3979 21.1971 19.5359C21.456 19.709 21.7503 19.8482 22.097 19.8482C22.1675 19.8482 22.2363 19.8489 22.3025 19.8496H22.3026C22.5608 19.8522 22.7791 19.8544 22.9032 19.8134C22.9076 19.8728 22.921 20.2254 22.9397 20.7173C22.9522 21.0462 22.967 21.4373 22.9831 21.8446C22.1132 24.2662 21.6792 27.0737 21.6792 30.0852V30.0867C21.6797 35.4844 23.219 40.2932 26.1579 43.3925C26.1579 43.3925 26.3271 43.6009 26.7989 43.9059C26.7989 43.9059 27.7189 42.3337 29.1179 40.5458C29.488 40.0792 29.8915 39.6401 30.3253 39.232C30.9706 38.6694 31.6398 38.1347 32.331 37.6294C34.1396 36.3975 36.2326 35.4589 38.1667 35.0597L37.8695 35.2127C35.8324 36.2611 34.5963 36.8972 32.6056 38.6038C31.286 39.7361 29.1822 41.7335 27.7444 44.4709C28.0435 44.7082 28.4466 44.9519 28.9218 45C28.9895 44.9205 29.1195 44.7167 29.3074 44.4224C29.9633 43.3946 31.3235 41.2631 33.1897 39.4713C38.0455 34.9244 43.7655 33.873 46.7603 33.9304C46.9285 32.6975 47.0153 31.4122 47.0153 30.0852C47.0153 27.9113 46.7888 25.8467 46.3366 23.9548L49.9121 19.9757L49.9155 19.9719C49.9451 19.9401 50.1518 19.7176 50.0533 19.5849ZM22.207 10.3636C23.3834 10.3661 23.941 10.855 24.2166 11.1144C24.2509 10.7167 24.1882 10.3661 23.8184 10.0664C23.5109 9.81681 22.9705 9.59614 22.1408 9.59614C21.5871 9.59614 21.0305 9.75846 20.6843 10.0517C20.367 10.3214 20.3151 10.626 20.3837 11.0761C20.4872 10.7476 21.238 10.3597 22.207 10.3636ZM20.0998 4.19152C20.0738 4.64023 20.1929 5.10855 20.4014 5.38562C20.5195 5.54304 20.7996 5.84659 21.0065 5.83482C21.1183 5.82776 21.2274 5.74242 21.3575 5.64069C21.5706 5.47414 21.8398 5.26363 22.2688 5.28068C22.504 5.28992 22.6968 5.46814 22.8816 5.63909C23.0501 5.79491 23.212 5.94468 23.3937 5.95497C23.5501 5.96488 23.6673 5.88637 23.7875 5.80587C23.8934 5.73492 24.0017 5.66242 24.1411 5.64749C24.3663 5.62363 24.4613 5.72106 24.5882 5.85115C24.6048 5.86811 24.6218 5.88561 24.6398 5.90348C24.7438 5.66221 24.8934 5.49792 25.2793 5.21252C25.4717 5.06961 25.8553 4.92978 26.287 4.7724C26.9027 4.54796 27.6163 4.28781 28.0132 3.9321C28.3511 3.62904 28.4276 3.06901 28.3207 2.6919C28.0647 3.05136 27.3551 3.43092 26.6642 3.46525C26.3175 3.48241 25.4867 3.32941 25.1925 3.17395C25.3401 2.92091 25.3887 2.63305 25.267 2.35598C25.0419 2.52958 24.069 2.62373 23.6875 2.62373C23.5347 2.62373 23.3236 2.59874 23.0883 2.5709C22.7378 2.5294 22.3338 2.48157 21.9893 2.50064C20.726 2.56734 20.1415 3.46476 20.0998 4.19152ZM24.2752 15.2459V15.3303L23.8255 15.6603C23.8282 15.7065 23.8404 15.9543 23.8593 16.3396L23.8593 16.3401L23.8593 16.3406C23.9113 17.3995 24.0141 19.4951 24.1118 21.2998C24.2041 23.0068 24.2916 24.4536 24.3269 24.5173C24.3676 24.5897 24.8326 25.9815 25.3228 27.4858C25.8843 29.2092 26.479 31.0798 26.5065 31.2827L26.5067 31.2814L26.5072 31.2847C26.6534 30.5653 27.2963 29.0054 28.023 28.2958C28.7669 27.5675 29.6737 27.2507 30.2268 27.2674C30.1062 27.1281 29.4839 25.6761 29.4653 25.5378C29.4496 25.399 29.2068 23.5836 29.1372 23.4625C29.089 23.3795 27.105 18.2421 25.8588 15.0061L24.2752 15.2459ZM24.2752 15.2459C23.9997 15.231 23.6866 15.1436 23.5225 15.0024C23.6868 15.1433 23.9997 15.23 24.2752 15.244V15.2459ZM24.6669 12.0075C24.6589 12.0017 24.6507 11.9968 24.6423 11.9931L24.6308 11.9881L24.642 11.9931C24.6505 11.9968 24.6588 12.0017 24.6669 12.0075ZM22.4659 11.2075C22.3052 11.1544 22.175 11.0958 22.0971 11.0413L22.097 11.0414C22.175 11.0959 22.3052 11.1544 22.4659 11.2075ZM22.3128 12.0513C22.5216 12.1947 22.9251 12.3083 23.3196 12.3395C22.9251 12.3066 22.5219 12.1943 22.3128 12.0513ZM29.6202 34.8611C29.4393 36.5231 29.0347 37.9648 28.4266 38.9947C28.132 39.4944 27.4355 40.381 26.9457 41.0045L26.9456 41.0045L26.945 41.0054L26.9446 41.0058L26.9444 41.0061C26.7849 41.2092 26.6473 41.3843 26.5528 41.5089C26.9692 40.6796 27.2904 38.6759 27.2634 37.1184C27.2586 36.8363 27.2313 36.4591 27.2001 36.0299L27.2001 36.0298C27.1197 34.9208 27.014 33.4637 27.207 32.3974C27.4949 30.8105 27.946 29.9185 29.0082 28.9406C29.5496 28.4419 30.6589 27.8049 32.2419 28.235L33.5228 30.6438C32.8372 30.5128 31.9315 30.6305 31.3273 31.0949C30.1915 31.9673 29.809 33.1438 29.6202 34.8611ZM23.4623 17.7886C23.2554 17.6675 22.6841 17.3894 22.2344 17.4081C21.768 17.4267 21.3742 17.5209 21.0064 17.7538C20.851 17.6493 20.8024 17.4419 20.9025 17.1996C21.0015 16.9584 21.1452 16.9236 21.1452 16.9236L21.0133 14.6565C21.0133 14.6565 21.6503 14.2033 21.8224 14.1519C21.9951 14.1004 22.0735 13.965 22.0735 13.7924C22.3555 13.9841 22.7718 14.4088 22.995 14.7271C23.2034 15.0213 23.3245 15.3489 23.3417 15.7128C23.3588 16.0757 23.3623 16.5087 23.2892 16.9584L23.3149 16.9802C23.4472 17.0928 23.5669 17.1944 23.5834 17.3728C23.5967 17.5209 23.5587 17.5953 23.5087 17.6934C23.4939 17.7222 23.4782 17.7531 23.4623 17.7886ZM44.1201 24.8468C44.0951 24.405 43.5822 23.2119 43.2712 22.952L48.6528 20.5652L44.1201 24.8468ZM29.3573 15.9305L33.9121 20.0626C33.4722 20.3097 32.8126 20.9752 32.6317 21.519L29.3573 15.9305ZM32.0226 24.1152C31.8672 24.3579 31.8113 24.5036 31.7593 24.7968C31.7131 25.0567 31.7376 25.2143 31.7685 25.4135L31.7685 25.4137L31.7686 25.4141C31.7728 25.4411 31.7771 25.4688 31.7813 25.4976L30.3832 24.5335C30.3952 24.3048 30.357 23.9755 30.3253 23.7025L30.3253 23.7025L30.3253 23.7025L30.3253 23.7025C30.3116 23.5845 30.2992 23.477 30.2925 23.3928C30.2904 23.3663 30.2827 23.3257 30.2755 23.2881L30.2724 23.2717L32.0226 24.1152ZM30.5811 34.7685C30.4664 35.4374 30.0569 37.4357 29.7455 38.137C31.0529 36.8649 34.4754 35.2402 35.8328 34.7994C35.5478 34.8165 35.1222 34.7062 34.9927 34.3938L33.5436 31.4431C33.2155 31.3475 32.3907 31.4014 31.8885 31.8158C30.9424 32.5958 30.7545 33.7272 30.6143 34.5714L30.6142 34.5719L30.6141 34.5727C30.6029 34.6399 30.5921 34.7052 30.5811 34.7685ZM42.0504 29.6733C41.9215 29.4296 41.8381 29.0804 42.071 28.7165C42.304 28.3536 42.8812 27.8515 43.2181 27.648L43.3014 29.4168C43.3014 29.4168 44.4583 31.6093 44.9649 32.7436C44.6447 32.7363 44.336 32.7389 44.0415 32.7413H44.0414H44.0413H44.0412H44.0411H44.0409H44.0407C43.8988 32.7425 43.7601 32.7436 43.6251 32.7436L43.5794 32.6618L43.5794 32.6618C43.3691 32.2851 43.1897 31.9636 42.9641 31.3641C42.9641 31.3641 42.1976 29.9479 42.0504 29.6733ZM38.1734 19.5472C37.759 19.3392 36.4663 19.221 35.8955 19.324L36.8611 12.1172L38.1734 19.5472ZM26.2832 10.4705C26.2479 9.43231 25.014 8.17004 22.2801 8.11757C19.8929 8.07196 18.2559 9.0346 18.3256 10.5063C18.3018 10.4395 18.2766 10.3784 18.2521 10.3191C18.1689 10.1176 18.0944 9.93719 18.1172 9.62798C18.1407 9.32584 18.2805 9.05576 18.412 8.80159C18.4777 8.67457 18.5414 8.55152 18.5875 8.43044C18.6968 8.14405 18.636 7.65218 18.5154 7.53106C18.5854 7.51565 18.6876 7.54611 18.799 7.57929C18.9357 7.62002 19.0862 7.66484 19.2078 7.63404C19.4839 7.56489 19.5677 7.4727 19.6712 7.24663C19.7752 7.02203 19.9174 6.83862 20.1528 6.82195C20.2359 6.81564 20.3529 6.84478 20.486 6.87793L20.486 6.87793C20.6946 6.92987 20.9428 6.99168 21.1625 6.94259C21.3896 6.89178 21.5511 6.75547 21.7012 6.62885C21.8596 6.49515 22.0052 6.37226 22.2016 6.37226C22.4034 6.37226 22.5858 6.51352 22.767 6.65378C22.9267 6.77745 23.0855 6.90035 23.2555 6.92493C23.4197 6.94817 23.6259 6.87261 23.8362 6.79555C24.0918 6.70188 24.3534 6.606 24.5531 6.68268C24.7508 6.75809 24.7843 6.95642 24.8183 7.15754C24.8469 7.32656 24.8758 7.49756 25.0028 7.59922C25.2131 7.76706 25.6494 7.64051 25.8997 7.56789C25.9588 7.55076 26.0075 7.53663 26.0404 7.53008C26.0278 7.58877 26.0142 7.64338 26.0011 7.69612C25.96 7.86107 25.9235 8.0078 25.9365 8.20437C25.9455 8.33025 26.0482 8.57785 26.1532 8.83104L26.1532 8.83105C26.2649 9.10061 26.3793 9.37651 26.3862 9.51862L26.3875 9.54482C26.4042 9.8797 26.4185 10.166 26.2832 10.4705ZM19.7752 14.0302C19.9689 13.7056 20.3671 13.3937 20.5569 13.3589C20.3318 13.3422 19.9689 13.3589 19.6575 13.4118C19.5535 13.2049 19.5192 12.8396 19.5707 12.6027L19.9174 12.6169L19.7261 12.1486C19.9684 11.9412 20.8849 11.4743 21.4048 11.4576C21.4523 11.6945 21.4563 11.8897 21.4396 11.976C21.4219 12.0628 21.3866 12.1667 21.2836 12.2173L20.8305 12.4492C21.1083 12.4349 21.3868 12.4385 21.6642 12.46C21.8187 12.4767 21.8888 12.5115 21.8888 12.6679C21.8888 12.8229 21.8471 12.9798 21.7613 13.1C21.6928 13.1947 21.5232 13.2032 21.3865 13.2101H21.3865H21.3865C21.3471 13.2121 21.3104 13.2139 21.2797 13.2177C21.3489 13.3731 21.369 13.4467 21.369 13.6006C21.369 13.7581 21.3175 13.8272 21.1792 13.8973L21.1715 13.9011C21.0345 13.9686 20.8651 14.0521 20.6966 14.1729C20.574 14.2602 20.3264 14.6354 20.2764 14.8605C20.0557 14.7271 19.8316 14.2396 19.7752 14.0302ZM40.5889 21.7677C42.0263 22.8563 42.8692 23.8611 42.933 24.1971C42.9363 24.2144 42.9398 24.2326 42.9436 24.2514L42.9436 24.2514C42.9706 24.3884 43.004 24.5577 42.9605 24.6664C42.8045 24.4565 41.6884 23.3933 41.6884 23.3933L40.9876 24.2804L42.3112 25.4431C42.0013 25.6256 41.6874 25.7678 41.1691 25.7026C40.5551 25.6256 39.1972 24.7693 39.1717 24.0955C38.6175 23.8597 37.3558 23.4801 36.3166 23.4978C35.6399 23.5071 34.8891 23.6787 34.6562 23.7567C34.4734 23.8171 34.3291 23.7425 34.1884 23.6697C34.1486 23.6491 34.1091 23.6287 34.0692 23.6115L33.9873 23.6625L34.5007 24.4565C34.5933 24.5028 34.7339 24.4574 34.9184 24.3978C35.0446 24.3571 35.1913 24.3097 35.3574 24.2804C36.0582 24.1539 37.0091 24.2584 37.7187 24.6664C38.2125 24.9493 39.5861 26.0914 39.8715 26.3778C40.1569 26.6623 40.5987 26.7393 40.8067 26.5578C41.0136 26.3778 41.3093 26.3813 41.2833 26.6142C41.2779 26.6632 41.2686 26.713 41.2594 26.7623C41.2246 26.9488 41.1916 27.126 41.3775 27.2071C41.5397 27.2801 41.6485 27.1853 41.7585 27.0894C41.7948 27.0578 41.8313 27.026 41.8698 27.0001C42.0263 26.8947 42.1807 26.8702 42.3622 26.9732C42.2327 27.2331 41.8958 27.6484 41.6099 27.8824C41.3245 28.1153 40.8841 28.3237 40.5987 28.2197L40.4173 28.6606L41.7144 31.6442C41.8434 31.904 41.93 32.0919 42.0029 32.25C42.1227 32.5096 42.2054 32.6889 42.3779 32.9751C39.8362 33.3914 37.4955 34.2236 36.7119 34.5458L36.193 32.7652L37.3803 31.0998C37.3803 31.0998 36.145 31.5466 35.7654 31.5794C35.7599 31.5798 35.7515 31.5808 35.7407 31.5821C35.6045 31.5985 35.0833 31.6612 34.9651 31.1194C34.9651 31.1194 34.8646 30.7301 34.8646 30.5731C34.8646 30.4246 34.9935 30.2436 35.123 30.2691C35.3584 30.3162 35.4869 30.2181 35.4869 30.2181L35.7355 29.8846C35.6418 29.8729 35.5413 29.8539 35.4499 29.8367L35.4498 29.8367L35.4498 29.8367C35.339 29.8157 35.2414 29.7973 35.1853 29.7973C35.1221 29.7973 35.0276 29.8322 34.9225 29.871L34.9225 29.871C34.8553 29.8958 34.7839 29.9221 34.7135 29.942C34.6091 29.8645 34.4477 29.7248 34.5002 29.5438H35.8753L35.9008 29.3869C35.9008 29.3869 35.1926 29.0696 34.918 29.0573C34.6439 29.0451 34.5257 29.2059 34.5257 29.2059V28.945L35.304 28.2918L34.5002 27.9593L34.0593 28.0378L34.3448 26.2219L34.1932 25.9095L33.4081 26.3773L33.3836 25.3465C33.4081 25.1568 33.773 24.7939 34.0687 24.6237L34.0172 23.9999C33.9304 24.0523 33.8411 24.0987 33.753 24.1445L33.753 24.1445C33.5233 24.2639 33.3013 24.3793 33.1506 24.5859C32.9648 24.8434 32.7353 25.2342 32.7613 25.5721C32.5269 25.3465 32.4778 24.9797 32.5269 24.7242C32.597 24.3697 32.7353 24.1191 33.0982 23.8077C32.9942 23.5135 32.9692 22.9779 33.0732 22.4831C33.2453 21.6647 34.1883 20.0969 36.4716 20.0836C37.8246 20.0763 39.4689 20.9158 40.5889 21.7677ZM36.0749 25.1043C35.5384 25.219 34.9685 25.5466 34.9685 25.5466L34.968 26.0135C35.2265 26.091 35.5119 26.3773 35.6933 26.6103L36.1033 26.5063L35.9277 26.2219C35.9277 26.2219 36.1823 26.1066 36.4981 26.091C36.8531 26.0748 37.1817 26.1439 37.3553 26.2979L38.2473 26.087L38.366 25.8992C37.7437 25.4108 36.8664 24.9351 36.0749 25.1043ZM34.2918 21.6554C34.0079 21.9398 33.3841 22.7141 33.6175 23.4973C33.8774 23.2442 34.3972 22.8485 34.7327 22.6665L34.2918 21.6554ZM35.3564 22.5106C35.9277 22.3801 37.3023 22.3287 37.7177 22.6146L37.9501 21.265C37.5357 21.0585 36.9394 20.9271 36.3941 20.9271C35.8498 20.9271 35.2535 21.0826 34.9411 21.3155L35.3564 22.5106ZM38.3934 22.8215C38.7289 22.9264 39.8455 23.4713 40.4168 23.8386L41.0651 22.9264C40.8317 22.6915 39.3012 21.7593 38.8848 21.5509L38.3934 22.8215ZM41.9851 21.6711L41.9851 21.6711L41.9851 21.6711C41.6072 21.3635 40.6968 20.6226 40.2398 20.4603L44.8485 15.9011L42.0988 21.7632C42.0703 21.7404 42.0318 21.709 41.9851 21.6711ZM58.9515 25.0538C57.5985 25.0538 57.2214 24.7718 57.2214 23.8699L57.2219 16.4611C57.2219 15.5019 57.5225 15.2768 58.6132 14.9938V14.6741H53.4052V14.9938C54.5522 15.2773 54.7959 15.5583 54.7959 16.5361V23.5684C54.7959 24.7527 54.665 25.0361 53.4052 25.3553V25.6751H61.809L62.1278 22.8161H61.809C60.9244 24.6408 60.3045 25.0538 58.9515 25.0538ZM66.8106 25.3553C66.021 25.2612 65.6635 24.8654 65.6635 24.1509L65.664 18.3226H65.3443L62.2597 18.585V18.9047C63.294 19.1122 63.5391 19.3564 63.5391 20.2214V24.0014C63.5391 24.9032 63.3121 25.1665 62.3539 25.3553V25.6751H66.8106V25.3553ZM65.0785 13.9965C64.9302 13.9352 64.7712 13.9039 64.6107 13.9042C63.9329 13.9042 63.3695 14.4495 63.3695 15.1257C63.3695 15.8035 63.9329 16.3679 64.6107 16.3679C65.2874 16.3679 65.8322 15.8035 65.8322 15.1257C65.8325 14.9652 65.8012 14.8062 65.7399 14.6579C65.6786 14.5095 65.5887 14.3747 65.4752 14.2613C65.3617 14.1478 65.2269 14.0578 65.0785 13.9965ZM71.943 19.2622C71.3786 19.2622 71.0034 19.45 70.2889 20.1086V24.2642C70.2889 25.0714 70.5699 25.448 71.4178 25.448C72.9959 25.448 74.0483 24.5079 74.0483 22.1957C74.0483 20.4656 73.2014 19.2622 71.943 19.2622ZM69.9682 13.9042H70.2889L70.2894 19.6011C71.1339 18.7164 72.0004 18.303 73.016 18.303C74.9334 18.303 76.3987 19.9002 76.3987 21.9687C76.3987 24.15 75.0845 25.9551 71.6243 25.9551C70.2894 25.9551 69.236 25.8806 68.1645 25.6746V15.4832C68.1645 14.8815 67.7506 14.5437 67.0925 14.4309V14.1111L69.9682 13.9042ZM81.0241 18.812C80.1581 18.812 79.576 19.7139 79.5196 21.0678H82.6027C82.5276 19.7521 81.8882 18.812 81.0241 18.812ZM81.1742 18.3035C83.1872 18.3035 84.6344 19.5457 84.8967 21.4999L79.5191 21.4994C79.4068 23.8302 80.7225 25.0351 82.0387 25.0351C83.073 25.0351 83.8998 24.5266 84.5775 23.4923H84.8962C84.2563 25.0155 82.8091 25.9551 81.0986 25.9551C78.8801 25.9551 77.226 24.3388 77.226 22.1766C77.226 19.9762 78.9375 18.3035 81.1742 18.3035ZM90.1037 20.1278C90.5926 20.1278 91.0816 20.4475 91.7029 21.0487L92.1712 18.9057C91.8333 18.5119 91.3812 18.3045 90.9129 18.3045C90.0282 18.3045 89.2573 19.0185 88.5614 20.5613H88.5247V18.3045H88.2039L85.1042 18.5855V18.9052C86.006 18.9802 86.3993 19.3941 86.3993 20.2964V24.0382C86.3993 24.8468 86.157 25.1288 85.2155 25.3553V25.6751H89.7271V25.3553C88.6934 25.1469 88.5251 24.8851 88.5251 24.0382V21.1424C89.0695 20.3906 89.4652 20.1278 90.1037 20.1278ZM103.677 18.9047V18.585L106.628 18.5855V18.9052C105.727 19.1509 105.501 19.4128 104.918 20.729L101.346 28.8891C100.594 30.6182 99.7851 31.2396 98.3183 31.2396C98.131 31.2396 97.9814 31.2396 97.7166 31.2018L98.1491 29.0588C98.6003 29.2093 98.8258 29.228 99.1088 29.228C100.425 29.228 101.175 28.2879 102.041 25.9561L99.4467 20.4857C98.9955 19.527 98.6939 19.1509 97.6602 19.1509H95.7594V23.2295C95.7594 24.378 96.0595 25.0542 97.057 25.0542C97.4302 25.0542 97.7514 24.8855 98.0898 24.4893L98.3149 24.6953C97.7892 25.5799 97.0928 25.9561 96.0394 25.9561C94.7056 25.9561 93.6331 25.3176 93.6331 23.7012V19.1509H92.3551V18.7934C93.2388 18.2486 94.404 17.1197 95.4014 15.8412H95.7589V18.5855H102.04V18.9052C101.231 19.018 101.231 19.4319 101.665 20.3352L103.168 23.4364L104.148 21.162C104.786 19.657 104.58 19.092 103.677 18.9047ZM68.9668 40.1387C67.8958 39.9328 67.4245 39.3879 67.2931 38.4297L66.2961 31.5671C66.1461 30.5511 66.4094 29.9891 67.5383 29.7806V29.4609H63.8143L60.9003 36.7187L58.0237 29.4609H54.0574V29.7806C54.6209 29.8003 55.2226 30.0817 55.6551 30.5329L54.564 37.7167C54.3011 39.4061 53.7941 40.0853 52.6103 40.1387V40.4585H56.5952V40.1387C55.354 40.0455 55.1098 39.1815 55.2986 37.9025L56.2568 31.4342H56.2936L59.8283 40.4585H60.2241L63.7956 31.4342H63.8339L64.7357 37.7167C64.9431 39.1452 64.7357 39.8391 63.5323 40.1387V40.4585H68.9668V40.1387ZM68.7197 33.6915C69.5666 33.8421 69.8299 34.1241 69.8299 34.9141L69.8294 38.5798C69.8294 39.9337 70.7141 40.7414 72.1794 40.7414C73.3264 40.7414 74.2111 40.2157 75.0001 39.0138H75.0379V40.7414L78.2916 40.4594V40.1397C77.3506 39.896 77.1618 39.6704 77.1618 38.7308V33.0893H76.842L73.9281 33.3723V33.692C74.6608 33.8239 75.0384 34.1613 75.0384 34.7444V38.2782C74.417 39.257 73.9845 39.5571 73.2715 39.5571C72.4991 39.5571 71.9538 39.1628 71.9538 38.3159V33.0888H71.6346L68.7197 33.3718V33.6915ZM78.6477 33.9353H79.9266V38.4841C79.9266 40.1029 80.9971 40.7404 82.3315 40.7404C83.3858 40.7404 84.0817 40.3658 84.6074 39.4821L84.3818 39.2746C84.0439 39.6689 83.7232 39.8386 83.3481 39.8386C82.3511 39.8386 82.0515 39.1619 82.0515 38.0148V33.9348H84.3818V33.3713H82.0515V30.6266H81.6925C80.6975 31.9045 79.5309 33.0334 78.6477 33.5782V33.9353ZM84.6442 33.6915C85.4911 33.8421 85.7544 34.1241 85.7544 34.9141H85.7535V38.5798C85.7535 39.9337 86.6371 40.7414 88.1024 40.7414C89.2504 40.7414 90.1341 40.2157 90.9242 39.0138H90.9609V40.7414L94.2142 40.4594V40.1397C93.2746 39.896 93.0858 39.6704 93.0858 38.7308V33.0893H92.7661L89.8521 33.3723V33.692C90.5848 33.8239 90.9614 34.1613 90.9614 34.7444V38.2782C90.3416 39.257 89.909 39.5571 89.1936 39.5571C88.4236 39.5571 87.8798 39.1628 87.8798 38.3159V33.0888H87.5591L84.6442 33.3718V33.6915ZM97.7303 39.971C98.1628 39.971 98.5757 39.7273 99.0661 39.2384V36.549C97.2963 37.3013 96.7525 37.7348 96.7525 38.693C96.7525 39.4625 97.1472 39.971 97.7303 39.971ZM98.0868 33.0883C99.61 33.0883 101.208 33.7842 101.208 35.7399V39.0873C101.208 39.7454 101.322 40.0259 101.641 40.0259C101.942 40.0259 102.129 39.8018 102.205 39.3693H102.505C102.431 40.2525 101.81 40.7404 100.775 40.7404C99.9116 40.7404 99.4217 40.4585 99.0661 39.7454L98.8955 39.895C98.181 40.535 97.5229 40.7409 96.6593 40.7409C95.4926 40.7409 94.5344 39.9146 94.5344 38.8809C94.5344 37.415 96.1804 36.9816 97.7287 36.5739C98.2068 36.448 98.6756 36.3245 99.0838 36.1739C99.0838 34.9141 98.5949 34.3124 97.3159 34.3124C96.3567 34.3124 95.6422 34.7057 95.1925 35.4962H94.9096C95.2857 33.973 96.4327 33.0883 98.0868 33.0883ZM102.637 29.2167C103.651 29.2726 103.973 29.6306 103.973 30.6271L103.972 38.7303C103.972 39.6336 103.671 39.9715 102.636 40.1392V40.459H107.355V40.1392C106.304 39.8955 106.096 39.6699 106.096 38.7303V28.6895H105.777L102.637 28.8979V29.2167ZM108.169 39.1099H107.617V38.9142H108.942V39.1099H108.39V40.5472H108.169V39.1099ZM110.663 39.5826V40.5467H110.876V38.9137H110.562L110.098 40.2942H110.094L109.627 38.9137H109.311V40.5467H109.525V39.5826C109.525 39.5653 109.525 39.5274 109.524 39.4788C109.522 39.3929 109.52 39.2736 109.52 39.1771H109.525L109.984 40.5467H110.203L110.663 39.1746H110.666C110.666 39.2727 110.665 39.3929 110.664 39.4792C110.663 39.5276 110.663 39.5654 110.663 39.5826Z" fill="#1C1C1E"/>
</svg>
