<svg width="128" height="48" viewBox="0 0 128 48" fill="none" xmlns="http://www.w3.org/2000/svg">
<path fill-rule="evenodd" clip-rule="evenodd" d="M29.8262 11L27.5199 18.0869H20L26.0707 22.4698L23.7909 29.592L29.8262 25.2091L35.8881 29.592L33.5817 22.4698L39.6171 18.0869H32.1326L29.8262 11ZM60.7191 17.4595C60.2596 17 59.7647 16.6642 59.1373 16.4698C58.5453 16.2401 57.8472 16.1429 57.0961 16.1429C56.3361 16.1429 55.6469 16.2754 54.9488 16.5758C54.2596 16.8763 53.694 17.3004 53.2345 17.7599L53.1992 17.7953C52.9694 18.0604 52.7662 18.3255 52.6071 18.6171C52.5728 18.6857 52.5385 18.752 52.5054 18.8159L52.5054 18.816C52.4107 18.9988 52.326 19.1623 52.2802 19.3063L52.2723 19.2894C52.2095 19.1548 52.1068 18.9345 51.9797 18.7143C51.75 18.2813 51.5468 17.9543 51.3877 17.8218C50.9282 17.2916 50.398 16.9293 49.7088 16.6377C49.0195 16.3373 48.2949 16.2047 47.4643 16.2047C46.9341 16.2047 46.1741 16.2666 45.3523 16.6642C44.398 17.1237 43.6027 17.8483 43.046 18.9087V16.5405H42.2861V29.7599H43.046V22.2401C43.046 21.3829 43.1432 20.6583 43.3465 19.9956C43.5409 19.3328 43.8413 18.838 44.2389 18.3432C44.5659 17.8837 45.0607 17.5214 45.6263 17.2916C46.183 17.0265 46.7839 16.894 47.4024 16.9293C48.1624 16.9647 48.8163 17.0972 49.4171 17.3623C49.9738 17.6274 50.4422 18.025 50.831 18.4845C51.1579 18.944 51.3877 19.3417 51.5202 19.8012C51.7146 20.3579 51.7853 21.0206 51.7853 21.9485V29.7334H52.5453V22.2842C52.5453 21.3652 52.5806 20.6053 52.7397 19.9779C52.9076 19.3859 53.1373 18.9264 53.5968 18.3255C53.9945 17.7953 54.4893 17.433 55.1786 17.1679C55.7353 16.9735 56.3627 16.8409 56.9547 16.8409C57.6174 16.8409 58.1741 16.9381 58.7043 17.1414C59.2345 17.3446 59.6233 17.6362 59.9945 17.9985C60.454 18.458 60.7898 19.0236 60.9842 19.7482C61.2139 20.4728 61.3111 21.2946 61.3111 22.3196V29.7334H62.071L62.2036 22.2842C62.2036 21.1974 62.071 20.243 61.806 19.4477C61.5762 18.6524 61.2404 17.9543 60.7191 17.4595ZM75.7146 19.8984C75.317 18.9794 74.5571 18.0515 73.5674 17.3888C72.4098 16.5935 71.0313 16.2047 69.5821 16.2047C66.9488 16.2047 65.3317 17.3888 64.4039 18.4138C63.2817 19.6686 62.6278 21.3829 62.6278 23.1326C62.6278 24.8822 63.2905 26.5965 64.4039 27.8513C65.2964 28.8409 66.94 30.0604 69.5821 30.0604C70.9341 30.0604 72.1535 29.7334 73.2404 29.106C74.2655 28.4433 75.0872 27.5862 75.7146 26.4374V29.7688H76.4746V16.5758H75.7146V19.8984ZM75.2905 20.6583C75.423 21.0206 75.5556 21.3829 75.6174 21.7452C75.7146 22.1429 75.75 22.567 75.75 22.9293C75.7853 23.3623 75.75 23.7511 75.6881 24.1134C75.6263 24.5464 75.5202 24.9087 75.3877 25.2356C74.9547 26.4551 74.2036 27.5066 73.1786 28.2047C72.1889 28.9293 70.9341 29.2916 69.6528 29.2916C67.7441 29.2916 66.1624 28.6024 65.0048 27.3476C64.0151 26.2253 63.3877 24.6789 63.3877 23.0619C63.3877 21.3122 64.0504 19.7658 65.1638 18.6082C66.3214 17.486 67.8678 16.8321 69.5821 16.8321C70.8369 16.8321 72.0563 17.1944 73.046 17.8218C74.071 18.5817 74.8575 19.5361 75.2905 20.6583ZM79.3818 18.5464C80.071 17.919 80.7691 17.5214 81.4584 17.2298C82.1476 16.9647 82.9076 16.7968 83.8354 16.7968H83.8973C85.0195 16.7968 86.1683 17.1237 87.1314 17.6893C88.2537 18.4138 89.1108 19.4035 89.5703 20.6583L89.6057 20.7202H90.4628L90.4009 20.5876C89.8708 19.1031 88.8811 17.8837 87.5644 17.0972C86.4775 16.4345 85.1609 16.1075 83.8708 16.1075C81.9621 16.1075 80.2124 16.8321 78.9223 18.1222C77.6322 19.4124 76.9076 21.1885 76.9076 23.0972C76.9076 24.8733 77.5968 26.5876 78.7191 27.8424C80.0092 29.2563 81.8207 30.0162 83.9945 30.0162C85.4083 30.0162 86.7956 29.5832 87.9179 28.7968C89.0401 28.0103 89.8973 26.9146 90.3921 25.5979L90.454 25.4654H89.5968L89.5615 25.5272C89.2345 26.4816 88.5364 27.4094 87.6174 28.0633C86.5659 28.8851 85.2139 29.2828 83.8266 29.2828C83.0048 29.2828 82.2095 29.1149 81.4495 28.8233C80.6896 28.4963 80.0622 28.0633 79.4702 27.5331C78.8781 26.9411 78.4451 26.2784 78.1182 25.4919C77.7912 24.732 77.6233 23.8748 77.6233 23.0177C77.6233 22.1605 77.8177 21.268 78.1182 20.4816C78.3921 19.7393 78.8516 19.0766 79.3818 18.5464ZM88.2802 18.4845C88.8722 19.0412 89.3671 19.7747 89.694 20.6318C89.3671 19.8012 88.8722 19.1119 88.2802 18.4845ZM100.28 16.5052H101.137L101.084 16.6377C101.084 16.6642 100.757 17.4595 100.227 18.6789L97.1249 25.8365C96.7995 26.551 96.4954 27.2583 96.1999 27.9457C96.1664 28.0235 96.1331 28.101 96.0999 28.1782C95.1501 30.3453 94.2966 32.3301 93.7653 33.5655C93.5946 33.9623 93.4572 34.2818 93.3606 34.5052C93.2545 34.7702 93.1927 34.9381 93.1927 34.9381L93.1573 35H92.3002L94.6772 29.6627L89.4018 16.5052H90.259L90.2943 16.567C90.2943 16.5744 90.363 16.7422 90.4953 17.0655C90.8398 17.9075 91.6158 19.8037 92.7332 22.6642L95.1367 28.6289L97.6728 22.6642C98.104 21.6441 98.5363 20.627 98.92 19.7241C99.6764 17.9442 100.244 16.608 100.244 16.567L100.28 16.5052ZM104.565 22.3373C105.458 22.5317 106.35 22.7968 107.075 23.327C107.861 23.9278 108.294 24.8115 108.347 26.0839C108.383 26.6141 108.312 27.109 108.118 27.5685C107.95 28.028 107.649 28.461 107.322 28.8233C106.951 29.1856 106.527 29.486 106.032 29.7158C105.537 29.9102 105.007 30.0427 104.45 30.0427C103.823 30.0427 103.266 29.9102 102.736 29.7158C102.206 29.5214 101.746 29.1944 101.349 28.7968C101.022 28.4963 100.792 28.1075 100.624 27.6745C100.456 27.2504 100.359 26.8174 100.359 26.3579V26.0928L101.119 26.0574V26.1546C101.146 27.109 101.446 27.9043 102.038 28.4963C102.63 29.053 103.487 29.3535 104.442 29.3535C104.875 29.3535 105.299 29.2916 105.696 29.1237C106.059 28.9647 106.421 28.7349 106.686 28.4345C106.987 28.1694 107.181 27.8424 107.349 27.4801C107.517 27.1532 107.579 26.729 107.579 26.296V26.1988C107.543 25.3152 107.313 24.6878 106.783 24.1576C106.288 23.6981 105.502 23.3358 104.38 23.0707C103.461 22.8409 102.533 22.5405 101.844 21.9838C101.19 21.4183 100.827 20.6672 100.792 19.6421C100.792 18.5552 101.154 17.6627 101.914 17.0353C102.577 16.514 103.47 16.2135 104.389 16.2135C105.44 16.2135 106.297 16.5052 106.925 17.1325C107.517 17.7599 107.879 18.6171 107.879 19.5714V19.651H107.119V19.5538C107.119 19.1561 107.057 18.7938 106.925 18.4669C106.801 18.1399 106.598 17.8395 106.368 17.6097C106.138 17.38 105.838 17.1856 105.511 17.053C105.219 16.9205 104.857 16.8586 104.459 16.8586H104.397C103.973 16.8586 103.576 16.9205 103.178 17.0884C102.851 17.2563 102.524 17.4507 102.259 17.7511C102.029 18.0162 101.826 18.2813 101.729 18.6082C101.596 18.9087 101.561 19.271 101.561 19.6333C101.596 20.4286 101.861 20.9499 102.356 21.3829C102.789 21.7099 103.443 22.0015 104.468 22.3019L104.565 22.3373ZM101.596 14.8881L100.704 15.5155L101.04 14.4639L100.182 13.8012H101.269L101.596 12.7761L101.959 13.8012H103.045L102.126 14.4639L102.489 15.5155L101.596 14.8881Z" fill="#1C1C1E"/>
</svg>
