<svg width="128" height="48" viewBox="0 0 128 48" fill="none" xmlns="http://www.w3.org/2000/svg">
<path fill-rule="evenodd" clip-rule="evenodd" d="M14.829 3C11.5108 3 7.62068 5.39444 7.62068 7.58326C7.62068 8.35777 8.26849 9.02244 9.60529 9.13031C9.44238 9.84045 9.33228 10.6677 9.33228 11.6086C9.33228 11.6656 9.33258 11.7225 9.33317 11.7792C7.43946 11.7574 6.24983 10.8097 6.24983 9.43578C6.24983 9.0187 6.33211 8.73742 6.36143 8.63718L6.36578 8.62226L6.29852 8.59663C6.20499 8.75806 5.83154 9.48959 5.83154 10.2384C5.83154 11.5486 7.07906 12.7701 9.38527 12.906C9.47119 13.9452 9.65955 14.9273 9.93555 15.8395L9.89836 15.8395C6.71922 15.8395 5.53993 14.3592 5.39709 13.5322H5.33239C5.26095 15.0901 6.84422 16.8405 10.3143 16.9157C10.7263 17.9353 11.2548 18.8476 11.8746 19.6306C11.7578 19.6343 11.642 19.6362 11.5275 19.6362C9.54171 19.6362 7.84101 19.0629 6.97752 18.307L6.92243 18.348C7.26642 18.9636 8.89602 20.4798 12.0175 20.4798C12.2173 20.4798 12.4181 20.4753 12.6196 20.4663C13.4593 21.3012 14.4216 21.9296 15.4599 22.3112C14.2102 22.4491 12.9466 22.3898 11.7152 22.1357L11.6889 22.217C11.7135 22.2261 11.7421 22.2369 11.7744 22.2492L11.7749 22.2494L11.7754 22.2495C12.2344 22.4234 13.4602 22.8877 15.2659 22.8877C19.6429 22.8877 22.601 20.1679 23.7924 18.1007L23.7073 18.0437C23.24 18.6054 22.7141 19.1157 22.1385 19.5657C22.0008 18.7738 21.8094 17.9938 21.5733 17.2316C22.4997 16.5233 23.2901 15.7257 23.8826 14.8662C24.0566 15.6961 24.1295 16.5311 24.0903 17.3506L24.196 17.3782C24.3318 16.9458 24.4074 16.3507 24.4138 15.3899C24.4138 14.9925 24.3779 14.586 24.3082 14.1749C24.7866 13.2948 25.0556 12.3612 25.0556 11.4004C25.0556 10.7882 24.9277 10.3817 24.8867 10.2516C24.8835 10.2414 24.8809 10.233 24.8788 10.2263L24.8045 10.2442C24.8179 11.2483 24.5438 12.2082 24.0542 13.1046C23.7944 12.2496 23.3997 11.3914 22.8888 10.5694C23.3005 9.79805 23.5296 8.9984 23.5296 8.19627C23.5296 6.90617 22.7116 6.22461 22.5752 6.12084L22.5214 6.16696C22.6245 6.35272 22.8071 6.77229 22.8071 7.44489C22.8071 8.14575 22.5894 8.86431 22.1971 9.57186C21.6071 8.80459 20.9135 8.08743 20.1337 7.45709C20.3876 6.93042 20.5268 6.3953 20.5268 5.86653C20.5268 4.34262 19.0842 3.51437 18.083 3.34334L18.0638 3.40227C18.3751 3.50092 19.5166 4.03131 19.5166 5.38931C19.5166 5.82081 19.3876 6.27729 19.1502 6.7398C18.4559 6.28493 17.7082 5.89846 16.917 5.60065C17.0855 5.2613 17.1767 4.92355 17.1767 4.60078C17.1767 3.55473 16.1716 3 14.829 3ZM23.6093 13.8202C23.3344 12.9422 22.9496 12.0798 22.4682 11.2583C21.8755 12.1197 21.0617 12.9339 20.097 13.662C20.5224 14.4803 20.9055 15.3368 21.2311 16.2218C22.177 15.5063 22.9953 14.699 23.6093 13.8202ZM20.6865 16.6141C20.3223 15.7564 19.9142 14.9181 19.473 14.1069C18.3528 14.8618 17.0696 15.5042 15.7152 15.9836C16.1653 16.8525 16.6388 17.6921 17.1283 18.4773C18.3829 17.9884 19.6024 17.3585 20.6865 16.6141ZM16.4942 18.7114C15.9585 17.9316 15.4527 17.0934 14.9862 16.2236C13.6957 16.617 12.3569 16.8593 11.0451 16.9088C11.4798 17.8882 12.0248 18.7922 12.6596 19.58C13.8848 19.4623 15.199 19.1633 16.4942 18.7114ZM13.4051 20.4095C14.6535 20.2852 15.9148 19.9994 17.1232 19.5814C17.6606 20.2864 18.2223 20.9273 18.7999 21.4797C17.9309 21.8244 17.0271 22.074 16.1044 22.2241C15.1169 21.8329 14.2069 21.2076 13.4051 20.4095ZM17.7064 19.3678C18.9199 18.8984 20.0674 18.2962 21.0791 17.592C21.3564 18.3254 21.5996 19.0704 21.8022 19.8226C20.9921 20.4176 20.117 20.9187 19.1938 21.3164C18.6904 20.7423 18.1923 20.0852 17.7064 19.3678ZM10.618 15.8192C11.8879 15.7483 13.1757 15.4947 14.4148 15.1026C13.9832 14.211 13.595 13.2994 13.2595 12.3948C12.1734 12.7139 11.0534 12.9017 9.96707 12.9175C10.0783 13.9143 10.3003 14.8915 10.618 15.8192ZM15.1498 14.8518C16.4801 14.3649 17.7364 13.7232 18.832 12.9848C18.3214 12.1323 17.7779 11.3162 17.2157 10.5464C16.2483 11.1996 15.1328 11.7587 13.9588 12.1697C14.3246 13.066 14.7241 13.9682 15.1498 14.8518ZM21.7899 10.2164C21.2129 11.03 20.4165 11.8168 19.4687 12.5312C18.9568 11.6668 18.4017 10.8549 17.8238 10.1082C18.6533 9.47 19.3401 8.7616 19.8139 8.02535C20.5564 8.68512 21.2197 9.42418 21.7899 10.2164ZM18.849 7.24635C18.1797 6.75682 17.4598 6.32948 16.6974 5.97933C16.3731 6.46897 15.8976 6.95156 15.3121 7.38674C15.8808 7.8948 16.4547 8.4775 17.0166 9.12386C17.7847 8.53348 18.4139 7.89075 18.849 7.24635ZM16.446 9.53532C15.925 8.87874 15.3938 8.2636 14.863 7.6972C14.2289 8.10502 13.4957 8.45601 12.7043 8.71031C12.9395 9.4572 13.2093 10.2343 13.5083 11.0244C14.5821 10.6355 15.582 10.1202 16.446 9.53532ZM12.8591 11.241C12.5947 10.4224 12.378 9.61931 12.2162 8.85267C11.5281 9.03327 10.8042 9.13886 10.0692 9.14529C9.9589 9.81712 9.88509 10.5888 9.88509 11.4529C9.88509 11.5581 9.88637 11.6632 9.88892 11.7683C10.8983 11.7216 11.902 11.5334 12.8591 11.241ZM10.9887 6.11117C10.8631 6.37861 10.5169 7.11562 10.2454 8.26291C10.8365 8.26287 11.4531 8.16394 12.0554 7.99181C11.9434 7.29717 11.8828 6.64206 11.8798 6.04398L11.9785 6.01451C12.1032 6.59375 12.2616 7.21585 12.4498 7.86805C13.0787 7.65311 13.6818 7.36248 14.212 7.02661C13.7022 6.52026 13.1967 6.06199 12.7049 5.65836L12.7779 5.60711C13.3483 5.88745 13.9584 6.28173 14.5842 6.77472C15.0852 6.41225 15.4988 6.01055 15.7753 5.60176C14.9681 5.31038 14.1204 5.10472 13.2404 5.00049L13.2513 4.92619C14.1898 4.92619 15.0959 5.05526 15.9583 5.29017C16.0842 5.03674 16.153 4.7837 16.153 4.53864C16.153 4.14726 15.8372 3.31004 14.1923 3.3094C11.6691 3.3094 8.41434 5.3227 8.41434 7.02276C8.41434 7.70519 8.9157 8.14968 9.85175 8.24408C10.2377 7.07128 10.7255 6.34542 10.8962 6.0914L10.8962 6.09139L10.8964 6.09113C10.9092 6.07212 10.9202 6.05576 10.9292 6.04205L11.0067 6.0728L10.9887 6.11117ZM34.2267 19.9116H36.8318C37.8484 19.9116 38.2347 20.262 38.2347 21.1217C38.2347 21.9486 37.8478 22.299 36.8318 22.299H34.2267V19.9116ZM30.1898 28.6016H34.2267V25.0676H38.5498C41.4125 25.0676 42.4432 23.3809 42.4432 21.2011C42.4432 18.6702 41.3837 17.2379 38.5204 17.2379H30.1898V28.6016ZM43.7743 17.2385H54.639V20.0071H47.8112V21.5348H54.1528V24.3046H47.8112V25.8324H54.639V28.6016H43.7743V17.2385ZM60.3644 19.9116H62.9696C63.9868 19.9116 64.3731 20.262 64.3731 21.1217C64.3731 21.9486 63.9861 22.299 62.9696 22.299H60.3644V19.9116ZM56.3282 28.6016H60.365V25.0676H64.6882C67.5522 25.0676 68.5816 23.3809 68.5816 21.2011C68.5816 18.6702 67.5221 17.2379 64.6594 17.2379H56.3282V28.6016ZM72.4897 23.7787C70.5142 23.445 69.6987 22.1709 69.6987 20.5797C69.6987 17.6357 72.2898 16.8401 75.6105 16.8401C80.1618 16.8401 82.0373 18.161 82.1815 20.5644H77.4861C77.4861 20.1019 77.2421 19.8149 76.8705 19.656C76.5125 19.4824 76.0551 19.4177 75.6105 19.4177C74.4082 19.4177 73.9931 19.7521 73.9931 20.23C73.9931 20.5477 74.1218 20.7553 74.5222 20.8187L79.3463 21.6143C81.3795 21.948 82.6395 22.9992 82.6395 24.9247C82.6395 27.6939 80.6063 28.9987 76.0685 28.9987C72.9631 28.9987 69.57 28.5215 69.5552 25.1797H74.4223C74.437 25.5608 74.5664 25.8151 74.8527 25.9906C75.1532 26.1501 75.5971 26.2295 76.2268 26.2295C77.4868 26.2295 77.8307 25.8478 77.8307 25.3065C77.8307 24.9728 77.6443 24.6384 77.0998 24.5436L72.4897 23.7787ZM83.9546 17.2385H87.9921V28.6016H83.9546V17.2385ZM102.95 24.1772L102.95 24.1785H98.3987C98.0695 25.5473 97.311 26.1367 96.0363 26.1367C94.5624 26.1367 93.5451 25.2296 93.5451 22.9217C93.5451 20.6137 94.5899 19.706 96.2362 19.706C97.7966 19.706 98.2841 20.8834 98.3981 21.6956H102.949C102.42 17.1918 98.6697 16.8414 96.2362 16.8414C93.7892 16.8414 89.2514 17.0329 89.2514 22.921C89.2514 28.8085 93.7892 29 96.2362 29C98.6985 29 100.245 28.5388 101.232 27.7105C102.234 26.8832 102.692 25.6742 102.95 24.1785H102.95V24.1772ZM108.233 22.9204C108.233 20.6124 109.279 19.7047 110.924 19.7047C112.57 19.7047 113.616 20.6124 113.616 22.9204C113.616 25.2283 112.57 26.1354 110.924 26.1354C109.278 26.1347 108.233 25.2277 108.233 22.9204ZM103.938 22.9204C103.938 28.8078 108.476 28.9994 110.923 28.9994C113.371 28.9994 117.909 28.8078 117.909 22.9204C117.909 17.0323 113.371 16.8407 110.923 16.8407C108.476 16.8401 103.938 17.0316 103.938 22.9204Z" fill="#1C1C1E"/>
</svg>
