<svg width="128" height="48" viewBox="0 0 128 48" fill="none" xmlns="http://www.w3.org/2000/svg">
<path fill-rule="evenodd" clip-rule="evenodd" d="M67.8347 15.3757C74.6619 10.6505 80.7797 8.68682 82.7078 10.9208C84.2126 12.6648 82.78 16.5797 79.3689 21.1035C79.5491 21.8191 79.6465 22.6616 79.6465 23.6402C79.6465 27.6721 77.8414 29.6644 74.842 29.6644C73.7377 29.6644 72.5217 29.43 72.5217 29.43V34.7034L69.9433 34.9849V30.7048C61.6898 37.4422 53.4862 40.7301 51.2054 38.0871C49.8852 36.5571 50.8491 33.3353 53.4206 29.5005L53.4204 29.5005L53.4204 17.9921H55.9987V29.5005L54.6278 29.5005C52.551 32.5578 51.7484 35.0436 52.7327 36.1844C54.6122 38.3626 62.2923 34.8303 69.9433 28.2782V17.9918H71.8889L72.0997 18.8356C72.8737 18.4137 74.3024 17.8279 75.5922 17.8279C76.7579 17.8279 77.767 18.2513 78.487 19.1817C80.7756 15.9328 81.6943 13.2714 80.6656 12.0794C79.1475 10.3205 73.8472 12.2925 67.8347 16.5664V15.3757ZM76.743 21.4511C76.3411 20.5848 75.5481 20.3128 74.4201 20.3128C73.7637 20.3128 73.1544 20.4291 72.5217 20.6406V25.9479C74.1179 24.4239 75.5391 22.9034 76.743 21.4511ZM73.6835 27.4058C73.8965 27.4109 74.1232 27.4141 74.3966 27.4141C75.8666 27.4141 76.8787 26.6959 77.0266 23.9527C76.0124 25.0942 74.8935 26.2527 73.6835 27.4058ZM78.7062 34.7203C78.9672 34.7203 79.2605 34.6652 79.4269 34.6331V34.119C79.3989 34.1247 79.3713 34.1304 79.3438 34.1361C79.1615 34.174 78.9881 34.2099 78.7817 34.2099C78.3382 34.2099 77.9342 34.119 77.9342 33.2994C77.9342 32.4687 78.3221 32.3932 78.8133 32.3932C79.0192 32.3932 79.2957 32.4408 79.3947 32.4687V31.9657C79.2605 31.9262 79.086 31.8785 78.825 31.8785C77.9781 31.8785 77.3051 32.2547 77.3051 33.3192C77.3051 34.3442 77.8118 34.7203 78.7062 34.7203ZM81.3111 32.3338C81.7032 32.3338 81.9445 32.5596 81.9445 33.2957C81.9445 34.0318 81.6953 34.2613 81.2993 34.2613C80.8997 34.2613 80.6461 33.9922 80.6579 33.2957C80.6702 32.5991 80.9114 32.3338 81.3111 32.3338ZM81.3073 31.8785C80.5391 31.8785 80.0287 32.2465 80.0287 33.2994C80.0287 34.3367 80.5317 34.7203 81.2993 34.7203C82.0713 34.7203 82.5736 34.3244 82.5736 33.2994C82.5736 32.2707 82.075 31.8785 81.3073 31.8785ZM84.6761 32.8089C84.6761 33.1608 84.4151 33.2481 84.1219 33.2481H83.9363V32.4013H84.13C84.4708 32.4013 84.6761 32.4606 84.6761 32.8089ZM84.1064 31.9181H83.3388V34.6807H83.9363V33.6755H84.2289C84.4628 33.7423 84.598 34.1501 84.7129 34.497C84.7342 34.5612 84.7547 34.6232 84.7751 34.6807H85.4364V34.6059C85.3937 34.5233 85.3515 34.4289 85.3079 34.3317C85.1698 34.0231 85.0188 33.6858 84.7993 33.6044L84.7157 33.5883V33.5413C85.0325 33.446 85.3015 33.3075 85.3015 32.7847C85.3015 32.1439 84.9533 31.9181 84.1064 31.9181ZM86.9568 33.3075H86.7391V32.405H86.9848C87.3051 32.405 87.479 32.5039 87.479 32.8522C87.479 33.1966 87.3051 33.3075 86.9568 33.3075ZM86.8938 31.9181H86.1416V34.6807H86.7391V33.7268H87.0398C87.6336 33.7268 88.1043 33.5215 88.1043 32.8126C88.1043 32.1043 87.7091 31.9181 86.8938 31.9181ZM89.9022 32.3338C90.294 32.3338 90.5351 32.5596 90.5351 33.2957C90.5351 34.0318 90.2864 34.2613 89.8904 34.2613C89.4903 34.2613 89.2367 33.9922 89.2484 33.2957C89.2609 32.5991 89.5021 32.3338 89.9022 32.3338ZM89.898 31.8785C89.1303 31.8785 88.6196 32.2465 88.6196 33.2994C88.6196 34.3367 89.1227 34.7203 89.8904 34.7203C90.6622 34.7203 91.1646 34.3244 91.1646 33.2994C91.1646 32.2707 90.6658 31.8785 89.898 31.8785ZM93.2667 32.8089C93.2667 33.1608 93.0062 33.2481 92.7125 33.2481H92.5273V32.4013H92.7208C93.0615 32.4013 93.2667 32.4606 93.2667 32.8089ZM92.6973 31.9181H91.9296V34.6807H92.5273V33.6755H92.8196C93.0536 33.7423 93.189 34.1506 93.3041 34.4976C93.3254 34.5616 93.3459 34.6234 93.3662 34.6807H94.0275V34.6059C93.9847 34.5232 93.9424 34.4286 93.8988 34.3312C93.7608 34.0228 93.6099 33.6857 93.3904 33.6044L93.3068 33.5883V33.5413C93.6233 33.446 93.8928 33.3075 93.8928 32.7847C93.8928 32.1439 93.5445 31.9181 92.6973 31.9181ZM95.8248 32.7098L96.1019 33.6637H95.433L95.7219 32.7098L95.7536 32.5553H95.793L95.8248 32.7098ZM95.4849 31.8983L94.4988 34.6176V34.6807H95.1435L95.346 34.0633H96.2125L96.4419 34.6807H97.1032V34.6176L96.0701 31.8983H95.4849ZM97.345 32.413L98.121 32.3932V34.6807H98.7188V32.3932L99.4989 32.413V31.9181H97.345V32.413ZM100.133 31.9181V34.6807H100.73V31.9181H100.133ZM102.721 32.3338C103.113 32.3338 103.354 32.5596 103.354 33.2957C103.354 34.0318 103.105 34.2613 102.709 34.2613C102.309 34.2613 102.056 33.9922 102.068 33.2957C102.08 32.5991 102.322 32.3338 102.721 32.3338ZM102.717 31.8785C101.949 31.8785 101.439 32.2465 101.439 33.2994C101.439 34.3367 101.942 34.7203 102.709 34.7203C103.481 34.7203 103.984 34.3244 103.984 33.2994C103.984 32.2707 103.485 31.8785 102.717 31.8785ZM105.27 31.9181H104.749V34.6807H105.346V32.9709H105.389L105.508 33.1727L106.557 34.6807H107.068V31.9181H106.47V33.6081H106.434L106.292 33.3705L105.27 31.9181ZM36.0553 29.5005L40.5319 13.1403H37.954L34.7662 25.0239L31.5315 13.1403H28.9769L25.7658 25.0239L22.5782 13.1403H20L24.4767 29.5005H27.0784L30.2895 17.617L33.4539 29.5005H36.0553ZM44.3037 12.9763L41.7255 13.1873V29.5005H44.3037V20.4766C44.96 20.2892 45.5929 20.125 46.3433 20.125C47.5383 20.125 48.593 20.4062 48.593 22.5623V29.5005H51.1713V22.3515C51.1713 18.7657 49.7652 17.8279 47.679 17.8279C46.5072 17.8279 45.5459 18.0389 44.3508 18.4842H44.2568L44.3037 16.9841V12.9763ZM56.2566 14.992C56.2566 14.1248 56.0457 13.3512 54.7096 13.3512C53.4204 13.3512 53.1859 14.1248 53.1859 14.992C53.1859 15.8593 53.444 16.6563 54.7096 16.6563C55.9752 16.6563 56.2566 15.8593 56.2566 14.992ZM59.936 17.9921H58.1779V29.5005H60.7562V20.711C61.436 20.4062 61.9983 20.2423 62.7017 20.2423C63.194 20.2423 63.6864 20.3128 64.1547 20.3826V17.8515C63.9673 17.8279 63.7798 17.8279 63.6159 17.8279C62.2093 17.8279 61.1313 18.3438 60.4519 18.9296H60.2876L59.936 17.9921ZM65.2557 13.1873V29.5005H67.834V12.9763L65.2557 13.1873ZM86.1848 19.8439C88.2473 19.8439 88.5992 21.6252 88.5992 23.8044C88.5992 25.9845 88.1303 27.6955 86.0679 27.6955C84.005 27.6955 83.5831 25.8904 83.5831 23.8044C83.5831 21.5547 84.099 19.8439 86.1848 19.8439ZM91.2248 23.8044C91.2248 19.9842 89.8178 17.8279 86.1614 17.8279C82.5049 17.8279 80.9814 19.9842 80.9814 23.8044C80.9814 27.3905 82.3175 29.735 86.1144 29.735C89.9118 29.735 91.2248 27.3905 91.2248 23.8044ZM97.7458 19.8439C99.8078 19.8439 100.16 21.6252 100.16 23.8044C100.16 25.9845 99.691 27.6955 97.6284 27.6955C95.5657 27.6955 95.1435 25.8904 95.1435 23.8044C95.1435 21.5547 95.6597 19.8439 97.7458 19.8439ZM102.785 23.8044C102.785 19.9842 101.378 17.8279 97.7223 17.8279C94.0655 17.8279 92.5418 19.9842 92.5418 23.8044C92.5418 27.3905 93.8782 29.735 97.6753 29.735C101.472 29.735 102.785 27.3905 102.785 23.8044ZM104.454 13.1873V29.5005H107.032V12.9763L104.454 13.1873Z" fill="#1C1C1E"/>
</svg>
