<svg width="128" height="48" viewBox="0 0 128 48" fill="none" xmlns="http://www.w3.org/2000/svg">
<path fill-rule="evenodd" clip-rule="evenodd" d="M20.5373 28.651V34H13.4627V28.651L15.1451 26.9255H18.8118L20.5373 28.651ZM20.9255 21.1451L22.6078 19.4627H28V26.5373H22.6078L20.9255 24.8549V21.1451ZM13.4627 12H20.5373V17.3922L18.8118 19.0745H15.1451L13.4627 17.3922V12ZM28 28.651V34H20.9255V26.9255H26.3176L28 28.651ZM6 13.6824L7.68235 12H13.0745V19.0745H6V13.6824ZM20.9255 17.3922V12H28V19.0745H22.6078L20.9255 17.3922ZM16.0078 23.0431C16.0078 23.5608 16.4392 24.0353 17 24.0353C17.5608 24.0353 17.9922 23.5608 17.9922 23.0431C17.9922 22.5255 17.5608 22.051 17 22.051C16.4824 22.051 16.0078 22.4824 16.0078 23.0431ZM6 19.4627H13.0745V24.8549L11.349 26.5373H6V19.4627ZM11.349 26.9255L13.0745 28.651V32.3176L11.349 34H6V26.9255H11.349ZM42.9253 28.4784C42.9684 28.6078 43.0115 28.651 43.141 28.651H45.2547C45.3841 28.651 45.4272 28.6078 45.4704 28.4784L48.49 17.6078C48.49 17.5216 48.4468 17.4353 48.3606 17.4353H45.6429C45.5135 17.4353 45.4272 17.5216 45.4272 17.6078L44.0468 24.1216H44.0037L42.1919 17.6078C42.1488 17.4784 42.1057 17.4353 41.9762 17.4353H40.2939C40.1645 17.4353 40.1213 17.4784 40.0782 17.6078L38.3527 24.1216H38.3096L36.886 17.6078C36.886 17.5216 36.7998 17.4353 36.6704 17.4353H33.9527C33.8233 17.4353 33.8233 17.5216 33.8233 17.6078L36.8429 28.4784C36.8861 28.6078 36.9292 28.651 37.0586 28.651H39.1292C39.2586 28.651 39.3017 28.6078 39.3449 28.4784L41.1135 22.2235H41.1566L42.9253 28.4784ZM50.4743 28.4784C50.4743 28.5647 50.5606 28.651 50.6468 28.651V28.6078H53.2351C53.3213 28.6078 53.4076 28.5216 53.4076 28.4353V24.9843C53.4076 24.9412 53.4076 24.898 53.4939 24.898H55.1331C57.8508 24.898 59.2743 23.302 59.2743 21.1451C59.2743 18.9882 57.8508 17.4353 55.1331 17.4353H50.6468C50.5606 17.4353 50.4743 17.5216 50.4743 17.6078V28.4784ZM54.9606 19.9373C55.8664 19.9373 56.3841 20.4118 56.3841 21.1882C56.3841 21.9216 55.8664 22.4392 54.9606 22.4392H53.4939C53.4508 22.4392 53.4076 22.4392 53.4076 22.3529V20.0235C53.4076 19.9804 53.4076 19.9373 53.4939 19.9373H54.9606ZM62.8115 23.0863C62.8115 24.5529 62.8978 25.2863 63.1135 25.8902C63.7174 27.702 65.0115 28.6078 66.9527 28.6078C68.5919 28.6078 69.8429 27.8745 70.5762 26.8392C70.6625 26.7529 70.6625 26.6235 70.5331 26.5373L70.4037 26.4078C70.3174 26.3216 70.188 26.3216 70.1017 26.451C69.4547 27.3137 68.3762 27.9608 66.9096 27.9608C65.3566 27.9608 64.1919 27.2706 63.6743 25.6745C63.5017 25.1137 63.4155 24.4667 63.4155 23.302C63.4155 23.2157 63.4586 23.1294 63.5449 23.1294H70.5762C70.7488 23.1294 70.8351 23.0431 70.8351 22.9137C70.8351 21.5765 70.7488 20.8863 70.5331 20.2823C69.9723 18.5137 68.6351 17.6078 66.8233 17.6078C65.0547 17.6078 63.6743 18.5137 63.1135 20.2823C62.941 20.8863 62.8115 21.6627 62.8115 23.0863ZM70.2311 22.3961C70.2311 22.4823 70.188 22.5255 70.1017 22.5255H63.6311C63.5449 22.5255 63.5017 22.4823 63.5017 22.3961C63.5017 21.6196 63.588 21.0588 63.7606 20.5412C64.2351 18.9882 65.3566 18.2549 66.8664 18.2549C68.3762 18.2549 69.4978 19.0314 69.9723 20.5412C70.1449 21.0588 70.2311 21.6627 70.2311 22.3961ZM80.6272 28.1765C80.6272 28.3059 80.7135 28.3922 80.8429 28.3922H81.1017C81.2311 28.3922 81.3174 28.3059 81.3174 28.1765V21.7059C81.3174 18.9882 79.9802 17.651 77.6076 17.651C76.0978 17.651 74.89 18.3843 74.3723 19.5922H74.3292V18.1255C74.3292 17.9961 74.2429 17.9098 74.1135 17.9098H73.8978C73.7684 17.9098 73.6821 17.9961 73.6821 18.1255V28.2196C73.6821 28.349 73.7684 28.4353 73.8978 28.4353H74.1135C74.2429 28.4353 74.3292 28.349 74.3292 28.2196V21.5765C74.3292 19.5059 75.7959 18.298 77.5645 18.298C79.5919 18.298 80.6272 19.3765 80.6272 21.8784V28.1765ZM84.5096 30.8078C84.3802 30.851 84.3802 30.9804 84.4664 31.1098C84.9841 31.9294 86.2351 32.6196 87.7449 32.6627C90.1606 32.6627 91.7135 31.3686 91.7135 28.4784V18.1686C91.7135 18.0392 91.6272 17.9529 91.4978 17.9529H91.2821C91.1527 17.9529 91.0664 18.0392 91.0664 18.1686V19.6784H91.0233C90.5057 18.5137 89.5998 17.6941 87.7449 17.6941C85.9762 17.6941 84.7684 18.6431 84.2508 20.1961C84.0351 20.9294 83.9057 21.8784 83.9057 23.1725C83.9057 24.4667 83.9919 25.4157 84.2508 26.149C84.7684 27.702 85.9762 28.651 87.7449 28.651C89.5998 28.651 90.5057 27.8314 91.0233 26.6667H91.0664V28.4353C91.0664 31.0235 89.7723 32.0157 87.788 32.0157C86.4939 32.0157 85.588 31.5412 84.9841 30.7647C84.8978 30.6353 84.8115 30.5922 84.6821 30.6784L84.5096 30.8078ZM91.0664 23.1294C91.0664 24.4667 90.9802 25.2431 90.7645 25.8902C90.29 27.4431 89.1253 28.0039 87.8312 27.9176C86.4076 27.9176 85.4155 27.2274 84.941 25.8471C84.7253 25.2 84.5959 24.2941 84.5959 23.0863C84.5959 21.8784 84.7253 20.9725 84.941 20.3255C85.3723 18.9451 86.4076 18.2549 87.8312 18.2549C89.1253 18.2549 90.2468 18.8157 90.7645 20.3686C90.9802 21.0157 91.0664 21.8353 91.0664 23.1294ZM95.1213 14.4157C95.1213 14.5451 95.2076 14.6314 95.337 14.6314V14.6745H95.8547C95.9841 14.6745 96.0704 14.5882 96.0704 14.4588V13.5529C96.0704 13.4235 95.9841 13.3373 95.8547 13.3373H95.337C95.2076 13.3373 95.1213 13.4235 95.1213 13.5529V14.4157ZM95.2939 28.1765C95.2939 28.3059 95.3802 28.3922 95.5096 28.3922H95.7253C95.8547 28.3922 95.941 28.3059 95.941 28.1765V18.1255C95.941 17.9961 95.8547 17.9098 95.7253 17.9098H95.5096C95.3802 17.9098 95.2939 17.9961 95.2939 18.1255V28.1765ZM106.466 28.1765C106.466 28.3059 106.553 28.3922 106.682 28.3922H106.941C107.07 28.3922 107.157 28.3059 107.157 28.1765V21.7059C107.157 18.9882 105.819 17.651 103.447 17.651C101.937 17.651 100.729 18.3843 100.212 19.5922H100.168V18.1255C100.168 17.9961 100.082 17.9098 99.9527 17.9098H99.737C99.6076 17.9098 99.5213 17.9961 99.5213 18.1255V28.2196C99.5213 28.349 99.6076 28.4353 99.737 28.4353H99.9527C100.082 28.4353 100.168 28.349 100.168 28.2196V21.5765C100.168 19.5059 101.635 18.298 103.404 18.298C105.431 18.298 106.466 19.3765 106.466 21.8784V28.1765ZM109.788 23.0863C109.788 24.5529 109.874 25.2863 110.09 25.8902C110.651 27.702 111.988 28.6078 113.929 28.6078C115.568 28.6078 116.819 27.8745 117.553 26.8392C117.639 26.7529 117.639 26.6235 117.51 26.5373L117.38 26.4078C117.294 26.3216 117.164 26.3216 117.078 26.451C116.431 27.3137 115.353 27.9608 113.886 27.9608C112.333 27.9608 111.168 27.2706 110.651 25.6745C110.478 25.1137 110.392 24.4667 110.392 23.302C110.392 23.2157 110.435 23.1294 110.521 23.1294H117.553C117.725 23.1294 117.812 23.0431 117.812 22.9137C117.812 21.5765 117.725 20.8863 117.51 20.2823C116.949 18.5137 115.612 17.6078 113.8 17.6078C112.031 17.6078 110.651 18.5137 110.09 20.2823C109.917 20.8863 109.788 21.6627 109.788 23.0863ZM117.164 22.3961C117.164 22.4823 117.121 22.5255 117.035 22.5255H110.564C110.478 22.5255 110.435 22.4823 110.435 22.3961C110.435 21.6196 110.521 21.0588 110.694 20.5412C111.168 18.9882 112.29 18.2549 113.8 18.2549C115.31 18.2549 116.431 19.0314 116.906 20.5412C117.078 21.0588 117.164 21.6627 117.164 22.3961ZM120.4 17.651C119.666 17.651 119.106 18.2118 119.106 18.9451C119.106 19.6784 119.666 20.2392 120.4 20.2392C121.133 20.2392 121.694 19.6784 121.694 18.9451C121.694 18.2118 121.133 17.651 120.4 17.651ZM120.4 17.8667C121.004 17.8667 121.478 18.298 121.478 18.9451C121.478 19.5922 121.004 20.0235 120.4 20.0235C119.796 20.0235 119.321 19.5922 119.321 18.9451C119.321 18.3412 119.753 17.8667 120.4 17.8667ZM119.931 19.673C119.936 19.6784 119.947 19.6784 119.968 19.6784H120.055C120.055 19.6784 120.098 19.6784 120.098 19.6353V19.1176H120.4L120.702 19.6784C120.723 19.6784 120.734 19.6892 120.745 19.7C120.756 19.7108 120.766 19.7216 120.788 19.7216H120.917C120.961 19.7216 121.004 19.6784 120.961 19.6353L120.659 19.0745C120.874 19.0314 120.961 18.8588 120.961 18.6863C120.961 18.4274 120.788 18.2549 120.486 18.2549H119.968C119.947 18.2549 119.936 18.2549 119.931 18.2603C119.925 18.2657 119.925 18.2765 119.925 18.298V19.6353C119.925 19.6569 119.925 19.6676 119.931 19.673ZM120.486 18.4274C120.659 18.4274 120.745 18.5137 120.745 18.6431C120.745 18.7725 120.659 18.8588 120.486 18.8588H120.141V18.4274H120.486Z" fill="#1C1C1E"/>
</svg>
